<?xml version="1.0" encoding="UTF-8"?>
<svg xmlns="http://www.w3.org/2000/svg" width="920" height="680" viewBox="0 0 920 680">
<rect x="0" y="0" width="920" height="680" fill="#ffffff"/>
<text x="460.0" y="34" text-anchor="middle" font-family="Arial, Helvetica, sans-serif" font-size="22" font-weight="700">ROC Curves for Splice Site Prediction</text>
<line x1="90" y1="600" x2="660" y2="600" stroke="#222" stroke-width="1.5"/>
<line x1="90" y1="70" x2="90" y2="600" stroke="#222" stroke-width="1.5"/>
<line x1="90.0" y1="70" x2="90.0" y2="600" stroke="#e6e6e6" stroke-width="1"/>
<line x1="90" y1="600.0" x2="660" y2="600.0" stroke="#e6e6e6" stroke-width="1"/>
<text x="90.0" y="624" text-anchor="middle" font-family="Arial, Helvetica, sans-serif" font-size="12">0.0</text>
<text x="78" y="604.0" text-anchor="end" font-family="Arial, Helvetica, sans-serif" font-size="12">0.0</text>
<line x1="204.0" y1="70" x2="204.0" y2="600" stroke="#e6e6e6" stroke-width="1"/>
<line x1="90" y1="494.0" x2="660" y2="494.0" stroke="#e6e6e6" stroke-width="1"/>
<text x="204.0" y="624" text-anchor="middle" font-family="Arial, Helvetica, sans-serif" font-size="12">0.2</text>
<text x="78" y="498.0" text-anchor="end" font-family="Arial, Helvetica, sans-serif" font-size="12">0.2</text>
<line x1="318.0" y1="70" x2="318.0" y2="600" stroke="#e6e6e6" stroke-width="1"/>
<line x1="90" y1="388.0" x2="660" y2="388.0" stroke="#e6e6e6" stroke-width="1"/>
<text x="318.0" y="624" text-anchor="middle" font-family="Arial, Helvetica, sans-serif" font-size="12">0.4</text>
<text x="78" y="392.0" text-anchor="end" font-family="Arial, Helvetica, sans-serif" font-size="12">0.4</text>
<line x1="432.0" y1="70" x2="432.0" y2="600" stroke="#e6e6e6" stroke-width="1"/>
<line x1="90" y1="282.0" x2="660" y2="282.0" stroke="#e6e6e6" stroke-width="1"/>
<text x="432.0" y="624" text-anchor="middle" font-family="Arial, Helvetica, sans-serif" font-size="12">0.6</text>
<text x="78" y="286.0" text-anchor="end" font-family="Arial, Helvetica, sans-serif" font-size="12">0.6</text>
<line x1="546.0" y1="70" x2="546.0" y2="600" stroke="#e6e6e6" stroke-width="1"/>
<line x1="90" y1="176.0" x2="660" y2="176.0" stroke="#e6e6e6" stroke-width="1"/>
<text x="546.0" y="624" text-anchor="middle" font-family="Arial, Helvetica, sans-serif" font-size="12">0.8</text>
<text x="78" y="180.0" text-anchor="end" font-family="Arial, Helvetica, sans-serif" font-size="12">0.8</text>
<line x1="660.0" y1="70" x2="660.0" y2="600" stroke="#e6e6e6" stroke-width="1"/>
<line x1="90" y1="70.0" x2="660" y2="70.0" stroke="#e6e6e6" stroke-width="1"/>
<text x="660.0" y="624" text-anchor="middle" font-family="Arial, Helvetica, sans-serif" font-size="12">1.0</text>
<text x="78" y="74.0" text-anchor="end" font-family="Arial, Helvetica, sans-serif" font-size="12">1.0</text>
<line x1="90.0" y1="600.0" x2="660.0" y2="70.0" stroke="#777" stroke-width="1.5" stroke-dasharray="6,5"/>
<text x="680" y="80" font-family="Arial, Helvetica, sans-serif" font-size="14" font-weight="700">Legend</text>
<path d="M 90.0,600.0 Q 90.0,596.4 90.0,594.7 Q 90.0,592.9 90.0,591.1 Q 90.0,589.3 90.0,587.6 Q 90.0,585.8 90.0,584.0 Q 90.0,582.2 90.0,580.4 Q 90.0,578.7 90.0,576.9 Q 90.0,575.1 90.0,573.3 Q 90.0,571.5 90.0,569.8 Q 90.0,568.0 90.0,566.2 Q 90.0,564.4 90.0,562.7 Q 90.0,560.9 90.0,559.1 Q 90.0,557.3 90.0,555.5 Q 90.0,553.8 90.0,552.0 Q 90.0,550.2 90.0,548.4 Q 90.0,546.6 90.0,544.9 Q 90.0,543.1 90.0,541.3 Q 90.0,539.5 90.0,537.8 Q 90.0,536.0 90.0,534.2 Q 90.0,532.4 90.0,530.6 Q 90.0,528.9 90.0,527.1 Q 90.0,525.3 91.9,525.3 Q 93.8,525.3 93.8,523.5 Q 93.8,521.7 93.8,520.0 Q 93.8,518.2 93.8,516.4 Q 93.8,514.6 93.8,512.9 Q 93.8,511.1 93.8,509.3 Q 93.8,507.5 93.8,505.7 Q 93.8,504.0 93.8,502.2 Q 93.8,500.4 93.8,498.6 Q 93.8,496.8 93.8,495.1 Q 93.8,493.3 93.8,491.5 Q 93.8,489.7 93.8,488.0 Q 93.8,486.2 93.8,484.4 Q 93.8,482.6 93.8,480.8 Q 93.8,479.1 93.8,477.3 Q 93.8,475.5 93.8,473.7 Q 93.8,471.9 93.8,470.2 Q 93.8,468.4 93.8,466.6 Q 93.8,464.8 93.8,463.1 Q 93.8,461.3 93.8,459.5 Q 93.8,457.7 93.8,455.9 Q 93.8,454.2 93.8,452.4 Q 93.8,450.6 93.8,448.8 Q 93.8,447.0 93.8,445.3 Q 93.8,443.5 93.8,441.7 Q 93.8,439.9 93.8,438.2 Q 93.8,436.4 93.8,434.6 Q 93.8,432.8 93.8,431.0 Q 93.8,429.3 93.8,427.5 Q 93.8,425.7 93.8,423.9 Q 93.8,422.1 93.8,420.4 Q 93.8,418.6 93.8,416.8 Q 93.8,415.0 93.8,413.3 Q 93.8,411.5 93.8,409.7 Q 93.8,407.9 93.8,406.1 Q 93.8,404.4 93.8,402.6 Q 93.8,400.8 93.8,399.0 Q 93.8,397.2 95.7,397.2 Q 97.7,397.2 97.7,395.5 Q 97.7,393.7 97.7,391.9 Q 97.7,390.1 97.7,388.4 Q 97.7,386.6 97.7,384.8 Q 97.7,383.0 97.7,381.2 Q 97.7,379.5 97.7,377.7 Q 97.7,375.9 97.7,374.1 Q 97.7,372.3 97.7,370.6 Q 97.7,368.8 97.7,367.0 Q 97.7,365.2 97.7,363.5 Q 97.7,361.7 97.7,359.9 Q 97.7,358.1 97.7,356.3 Q 97.7,354.6 97.7,352.8 Q 97.7,351.0 97.7,349.2 Q 97.7,347.4 97.7,345.7 Q 97.7,343.9 97.7,342.1 Q 97.7,340.3 97.7,338.6 Q 97.7,336.8 97.7,335.0 Q 97.7,333.2 97.7,331.4 Q 97.7,329.7 97.7,327.9 Q 97.7,326.1 97.7,324.3 Q 97.7,322.6 99.6,322.6 Q 101.5,322.6 101.5,320.8 Q 101.5,319.0 101.5,317.2 Q 101.5,315.4 101.5,313.7 Q 101.5,311.9 101.5,310.1 Q 101.5,308.3 101.5,306.5 Q 101.5,304.8 101.5,303.0 Q 101.5,301.2 101.5,299.4 Q 101.5,297.7 101.5,295.9 Q 101.5,294.1 101.5,292.3 Q 101.5,290.5 101.5,288.8 Q 101.5,287.0 101.5,285.2 Q 101.5,283.4 101.5,281.6 Q 101.5,279.9 101.5,278.1 Q 101.5,276.3 101.5,274.5 Q 101.5,272.8 101.5,271.0 Q 101.5,269.2 101.5,267.4 Q 101.5,265.6 101.5,263.9 Q 101.5,262.1 101.5,260.3 Q 101.5,258.5 103.4,258.5 Q 105.3,258.5 105.3,256.7 Q 105.3,255.0 107.2,255.0 Q 109.1,255.0 109.1,253.2 Q 109.1,251.4 109.1,249.6 Q 109.1,247.9 109.1,246.1 Q 109.1,244.3 109.1,242.5 Q 109.1,240.7 109.1,239.0 Q 109.1,237.2 109.1,235.4 Q 109.1,233.6 109.1,231.8 Q 109.1,230.1 111.0,230.1 Q 113.0,230.1 113.0,228.3 Q 113.0,226.5 113.0,224.7 Q 113.0,223.0 114.9,223.0 Q 116.8,223.0 116.8,221.2 Q 116.8,219.4 118.7,219.4 Q 120.6,219.4 122.5,219.4 Q 124.4,219.4 124.4,217.6 Q 124.4,215.8 124.4,214.1 Q 124.4,212.3 126.3,212.3 Q 128.3,212.3 128.3,210.5 Q 128.3,208.7 128.3,206.9 Q 128.3,205.2 128.3,203.4 Q 128.3,201.6 128.3,199.8 Q 128.3,198.1 130.2,198.1 Q 132.1,198.1 132.1,196.3 Q 132.1,194.5 134.0,194.5 Q 135.9,194.5 135.9,192.7 Q 135.9,190.9 135.9,189.2 Q 135.9,187.4 135.9,185.6 Q 135.9,183.8 135.9,182.0 Q 135.9,180.3 135.9,178.5 Q 135.9,176.7 137.8,176.7 Q 139.7,176.7 141.6,176.7 Q 143.6,176.7 145.5,176.7 Q 147.4,176.7 149.3,176.7 Q 151.2,176.7 151.2,174.9 Q 151.2,173.2 151.2,171.4 Q 151.2,169.6 151.2,167.8 Q 151.2,166.0 151.2,164.3 Q 151.2,162.5 153.1,162.5 Q 155.0,162.5 156.9,162.5 Q 158.9,162.5 160.8,162.5 Q 162.7,162.5 162.7,160.7 Q 162.7,158.9 162.7,157.1 Q 162.7,155.4 164.6,155.4 Q 166.5,155.4 168.4,155.4 Q 170.3,155.4 170.3,153.6 Q 170.3,151.8 170.3,150.0 Q 170.3,148.3 172.2,148.3 Q 174.2,148.3 176.1,148.3 Q 178.0,148.3 178.0,146.5 Q 178.0,144.7 179.9,144.7 Q 181.8,144.7 183.7,144.7 Q 185.6,144.7 185.6,142.9 Q 185.6,141.1 187.6,141.1 Q 189.5,141.1 191.4,141.1 Q 193.3,141.1 193.3,139.4 Q 193.3,137.6 195.2,137.6 Q 197.1,137.6 199.0,137.6 Q 200.9,137.6 200.9,135.8 Q 200.9,134.0 202.9,134.0 Q 204.8,134.0 206.7,134.0 Q 208.6,134.0 210.5,134.0 Q 212.4,134.0 214.3,134.0 Q 216.2,134.0 216.2,132.2 Q 216.2,130.5 216.2,128.7 Q 216.2,126.9 216.2,125.1 Q 216.2,123.4 218.2,123.4 Q 220.1,123.4 222.0,123.4 Q 223.9,123.4 225.8,123.4 Q 227.7,123.4 229.6,123.4 Q 231.5,123.4 233.5,123.4 Q 235.4,123.4 235.4,121.6 Q 235.4,119.8 237.3,119.8 Q 239.2,119.8 241.1,119.8 Q 243.0,119.8 243.0,118.0 Q 243.0,116.2 244.9,116.2 Q 246.8,116.2 248.8,116.2 Q 250.7,116.2 252.6,116.2 Q 254.5,116.2 256.4,116.2 Q 258.3,116.2 260.2,116.2 Q 262.1,116.2 262.1,114.5 Q 262.1,112.7 262.1,110.9 Q 262.1,109.1 262.1,107.3 Q 262.1,105.6 264.1,105.6 Q 266.0,105.6 266.0,103.8 Q 266.0,102.0 267.9,102.0 Q 269.8,102.0 271.7,102.0 Q 273.6,102.0 275.5,102.0 Q 277.4,102.0 279.4,102.0 Q 281.3,102.0 281.3,100.2 Q 281.3,98.5 283.2,98.5 Q 285.1,98.5 287.0,98.5 Q 288.9,98.5 290.8,98.5 Q 292.8,98.5 294.7,98.5 Q 296.6,98.5 296.6,96.7 Q 296.6,94.9 296.6,93.1 Q 296.6,91.3 296.6,89.6 Q 296.6,87.8 296.6,86.0 Q 296.6,84.2 298.5,84.2 Q 300.4,84.2 302.3,84.2 Q 304.2,84.2 306.1,84.2 Q 308.1,84.2 310.0,84.2 Q 311.9,84.2 311.9,82.4 Q 311.9,80.7 313.8,80.7 Q 315.7,80.7 317.6,80.7 Q 319.5,80.7 321.4,80.7 Q 323.4,80.7 325.3,80.7 Q 327.2,80.7 327.2,78.9 Q 327.2,77.1 329.1,77.1 Q 331.0,77.1 332.9,77.1 Q 334.8,77.1 336.7,77.1 Q 338.7,77.1 340.6,77.1 Q 342.5,77.1 344.4,77.1 Q 346.3,77.1 348.2,77.1 Q 350.1,77.1 352.0,77.1 Q 354.0,77.1 355.9,77.1 Q 357.8,77.1 359.7,77.1 Q 361.6,77.1 361.6,75.3 Q 361.6,73.6 363.5,73.6 Q 365.4,73.6 367.3,73.6 Q 369.3,73.6 371.2,73.6 Q 373.1,73.6 375.0,73.6 Q 376.9,73.6 378.8,73.6 Q 380.7,73.6 382.7,73.6 Q 384.6,73.6 386.5,73.6 Q 388.4,73.6 390.3,73.6 Q 392.2,73.6 394.1,73.6 Q 396.0,73.6 398.0,73.6 Q 399.9,73.6 401.8,73.6 Q 403.7,73.6 405.6,73.6 Q 407.5,73.6 409.4,73.6 Q 411.3,73.6 413.3,73.6 Q 415.2,73.6 417.1,73.6 Q 419.0,73.6 420.9,73.6 Q 422.8,73.6 424.7,73.6 Q 426.6,73.6 428.6,73.6 Q 430.5,73.6 432.4,73.6 Q 434.3,73.6 436.2,73.6 Q 438.1,73.6 440.0,73.6 Q 441.9,73.6 443.9,73.6 Q 445.8,73.6 447.7,73.6 Q 449.6,73.6 451.5,73.6 Q 453.4,73.6 455.3,73.6 Q 457.2,73.6 459.2,73.6 Q 461.1,73.6 463.0,73.6 Q 464.9,73.6 466.8,73.6 Q 468.7,73.6 470.6,73.6 Q 472.6,73.6 474.5,73.6 Q 476.4,73.6 478.3,73.6 Q 480.2,73.6 482.1,73.6 Q 484.0,73.6 485.9,73.6 Q 487.9,73.6 489.8,73.6 Q 491.7,73.6 491.7,71.8 Q 491.7,70.0 493.6,70.0 Q 495.5,70.0 497.4,70.0 Q 499.3,70.0 501.2,70.0 Q 503.2,70.0 505.1,70.0 Q 507.0,70.0 508.9,70.0 Q 510.8,70.0 512.7,70.0 Q 514.6,70.0 516.5,70.0 Q 518.5,70.0 520.4,70.0 Q 522.3,70.0 524.2,70.0 Q 526.1,70.0 528.0,70.0 Q 529.9,70.0 531.8,70.0 Q 533.8,70.0 535.7,70.0 Q 537.6,70.0 539.5,70.0 Q 541.4,70.0 543.3,70.0 Q 545.2,70.0 547.1,70.0 Q 549.1,70.0 551.0,70.0 Q 552.9,70.0 554.8,70.0 Q 556.7,70.0 558.6,70.0 Q 560.5,70.0 562.4,70.0 Q 564.4,70.0 566.3,70.0 Q 568.2,70.0 570.1,70.0 Q 572.0,70.0 573.9,70.0 Q 575.8,70.0 577.8,70.0 Q 579.7,70.0 581.6,70.0 Q 583.5,70.0 585.4,70.0 Q 587.3,70.0 589.2,70.0 Q 591.1,70.0 593.1,70.0 Q 595.0,70.0 596.9,70.0 Q 598.8,70.0 600.7,70.0 Q 602.6,70.0 604.5,70.0 Q 606.4,70.0 608.4,70.0 Q 610.3,70.0 612.2,70.0 Q 614.1,70.0 616.0,70.0 Q 617.9,70.0 619.8,70.0 Q 621.7,70.0 623.7,70.0 Q 625.6,70.0 627.5,70.0 Q 629.4,70.0 631.3,70.0 Q 633.2,70.0 635.1,70.0 Q 637.0,70.0 639.0,70.0 Q 640.9,70.0 642.8,70.0 Q 644.7,70.0 646.6,70.0 Q 648.5,70.0 650.4,70.0 Q 652.3,70.0 654.3,70.0 Q 656.2,70.0 658.1,70.0 Q 660.0,70.0 660.0,70.0" fill="none" stroke="#1f77b4" stroke-width="2.8" stroke-linejoin="round" stroke-linecap="round"/>
<circle cx="660.0" cy="70.0" r="3.5" fill="#1f77b4"/>
<line x1="680" y1="91" x2="708" y2="91" stroke="#1f77b4" stroke-width="3"/>
<text x="716" y="96" font-family="Arial, Helvetica, sans-serif" font-size="12">SVM (RBF) (AUC=0.9330)</text>
<text x="460.0" y="656" text-anchor="middle" font-family="Arial, Helvetica, sans-serif" font-size="13">False Positive Rate</text>
<text x="22" y="340.0" transform="rotate(-90 22 340.0)" text-anchor="middle" font-family="Arial, Helvetica, sans-serif" font-size="13">True Positive Rate</text>
</svg>
