<?xml version="1.0" encoding="UTF-8"?>
<svg xmlns="http://www.w3.org/2000/svg" width="920" height="680" viewBox="0 0 920 680">
<rect x="0" y="0" width="920" height="680" fill="#ffffff"/>
<text x="460.0" y="34" text-anchor="middle" font-family="Arial, Helvetica, sans-serif" font-size="22" font-weight="700">ROC Curves for Splice Site Prediction</text>
<line x1="90" y1="600" x2="660" y2="600" stroke="#222" stroke-width="1.5"/>
<line x1="90" y1="70" x2="90" y2="600" stroke="#222" stroke-width="1.5"/>
<line x1="90.0" y1="70" x2="90.0" y2="600" stroke="#e6e6e6" stroke-width="1"/>
<line x1="90" y1="600.0" x2="660" y2="600.0" stroke="#e6e6e6" stroke-width="1"/>
<text x="90.0" y="624" text-anchor="middle" font-family="Arial, Helvetica, sans-serif" font-size="12">0.0</text>
<text x="78" y="604.0" text-anchor="end" font-family="Arial, Helvetica, sans-serif" font-size="12">0.0</text>
<line x1="204.0" y1="70" x2="204.0" y2="600" stroke="#e6e6e6" stroke-width="1"/>
<line x1="90" y1="494.0" x2="660" y2="494.0" stroke="#e6e6e6" stroke-width="1"/>
<text x="204.0" y="624" text-anchor="middle" font-family="Arial, Helvetica, sans-serif" font-size="12">0.2</text>
<text x="78" y="498.0" text-anchor="end" font-family="Arial, Helvetica, sans-serif" font-size="12">0.2</text>
<line x1="318.0" y1="70" x2="318.0" y2="600" stroke="#e6e6e6" stroke-width="1"/>
<line x1="90" y1="388.0" x2="660" y2="388.0" stroke="#e6e6e6" stroke-width="1"/>
<text x="318.0" y="624" text-anchor="middle" font-family="Arial, Helvetica, sans-serif" font-size="12">0.4</text>
<text x="78" y="392.0" text-anchor="end" font-family="Arial, Helvetica, sans-serif" font-size="12">0.4</text>
<line x1="432.0" y1="70" x2="432.0" y2="600" stroke="#e6e6e6" stroke-width="1"/>
<line x1="90" y1="282.0" x2="660" y2="282.0" stroke="#e6e6e6" stroke-width="1"/>
<text x="432.0" y="624" text-anchor="middle" font-family="Arial, Helvetica, sans-serif" font-size="12">0.6</text>
<text x="78" y="286.0" text-anchor="end" font-family="Arial, Helvetica, sans-serif" font-size="12">0.6</text>
<line x1="546.0" y1="70" x2="546.0" y2="600" stroke="#e6e6e6" stroke-width="1"/>
<line x1="90" y1="176.0" x2="660" y2="176.0" stroke="#e6e6e6" stroke-width="1"/>
<text x="546.0" y="624" text-anchor="middle" font-family="Arial, Helvetica, sans-serif" font-size="12">0.8</text>
<text x="78" y="180.0" text-anchor="end" font-family="Arial, Helvetica, sans-serif" font-size="12">0.8</text>
<line x1="660.0" y1="70" x2="660.0" y2="600" stroke="#e6e6e6" stroke-width="1"/>
<line x1="90" y1="70.0" x2="660" y2="70.0" stroke="#e6e6e6" stroke-width="1"/>
<text x="660.0" y="624" text-anchor="middle" font-family="Arial, Helvetica, sans-serif" font-size="12">1.0</text>
<text x="78" y="74.0" text-anchor="end" font-family="Arial, Helvetica, sans-serif" font-size="12">1.0</text>
<line x1="90.0" y1="600.0" x2="660.0" y2="70.0" stroke="#777" stroke-width="1.5" stroke-dasharray="6,5"/>
<text x="680" y="80" font-family="Arial, Helvetica, sans-serif" font-size="14" font-weight="700">Legend</text>
<polyline fill="none" stroke="#1f77b4" stroke-width="2.8" stroke-linejoin="round" stroke-linecap="round" points="90.0,600.0 90.0,597.1 90.0,541.1 90.0,501.4 90.0,476.7 90.0,445.0 90.0,428.7 90.0,410.4 90.0,398.6 90.0,389.9 90.0,373.3 90.0,356.0 90.0,347.0 90.0,333.9 90.0,325.2 90.0,317.2 90.0,307.6 90.0,294.8 90.0,290.3 90.0,284.9 90.0,278.8 90.3,271.4 90.3,265.7 90.3,257.0 90.3,249.3 90.3,241.0 90.3,234.6 90.3,226.9 90.3,219.9 90.3,215.1 90.3,209.9 90.7,205.8 91.0,200.3 91.0,195.2 91.0,191.7 91.0,186.6 91.0,182.7 91.0,178.2 91.0,173.4 91.0,165.4 91.4,160.3 91.4,153.3 91.4,148.5 91.4,143.7 92.8,138.9 92.8,135.6 93.1,132.1 93.1,127.6 93.4,121.2 93.4,117.4 93.4,113.2 93.8,107.8 93.8,101.7 94.5,98.2 94.8,92.1 95.9,89.5 96.5,87.0 98.3,85.1 100.7,84.1 101.4,81.5 102.1,78.6 105.2,77.7 107.2,76.4 110.0,75.8 112.7,75.1 114.5,71.9 117.9,71.6 121.0,71.3 124.1,71.0 127.5,70.6 131.0,70.6 133.7,70.0 138.2,70.0 142.0,70.0 146.1,70.0 149.6,70.0 153.0,70.0 156.8,70.0 160.6,70.0 164.4,70.0 167.8,70.0 171.6,70.0 175.1,70.0 179.5,70.0 183.0,70.0 186.4,70.0 190.2,70.0 193.7,70.0 197.1,70.0 200.6,70.0 204.0,70.0 207.4,70.0 210.9,70.0 214.3,70.0 217.8,70.0 221.2,70.0 225.0,70.0 228.5,70.0 232.6,70.0 236.0,70.0 239.5,70.0 243.3,70.0 246.7,70.0 250.2,70.0 253.6,70.0 257.0,70.0 260.5,70.0 264.6,70.0 268.4,70.0 271.8,70.0 275.3,70.0 278.7,70.0 282.2,70.0 285.6,70.0 289.4,70.0 292.9,70.0 296.3,70.0 299.7,70.0 303.5,70.0 307.3,70.0 310.8,70.0 314.2,70.0 317.7,70.0 321.8,70.0 325.2,70.0 328.7,70.0 332.1,70.0 335.6,70.0 339.4,70.0 342.8,70.0 346.2,70.0 349.7,70.0 353.8,70.0 357.3,70.0 361.1,70.0 364.8,70.0 368.3,70.0 371.7,70.0 375.5,70.0 379.0,70.0 382.4,70.0 386.5,70.0 390.0,70.0 393.4,70.0 397.2,70.0 400.7,70.0 404.1,70.0 407.5,70.0 411.3,70.0 414.8,70.0 418.2,70.0 421.7,70.0 425.5,70.0 428.9,70.0 432.3,70.0 436.1,70.0 439.6,70.0 443.4,70.0 446.8,70.0 450.3,70.0 453.7,70.0 457.1,70.0 460.6,70.0 464.4,70.0 467.8,70.0 471.3,70.0 474.7,70.0 478.2,70.0 481.6,70.0 485.0,70.0 489.2,70.0 492.6,70.0 496.4,70.0 499.8,70.0 503.6,70.0 507.1,70.0 510.5,70.0 514.0,70.0 517.4,70.0 520.9,70.0 524.6,70.0 528.1,70.0 531.5,70.0 535.0,70.0 538.4,70.0 541.9,70.0 545.3,70.0 548.8,70.0 552.2,70.0 555.6,70.0 559.1,70.0 562.9,70.0 566.3,70.0 569.8,70.0 573.2,70.0 577.0,70.0 580.4,70.0 583.9,70.0 587.7,70.0 591.5,70.0 594.9,70.0 598.7,70.0 602.1,70.0 605.9,70.0 609.7,70.0 613.2,70.0 616.6,70.0 620.0,70.0 623.5,70.0 626.9,70.0 630.4,70.0 633.8,70.0 637.3,70.0 640.7,70.0 644.2,70.0 647.6,70.0 651.0,70.0 655.2,70.0 659.0,70.0 660.0,70.0"/>
<circle cx="660.0" cy="70.0" r="3.5" fill="#1f77b4"/>
<line x1="680" y1="91" x2="708" y2="91" stroke="#1f77b4" stroke-width="3"/>
<text x="716" y="96" font-family="Arial, Helvetica, sans-serif" font-size="12">WMM (AUC=0.9981)</text>
<polyline fill="none" stroke="#d62728" stroke-width="2.8" stroke-linejoin="round" stroke-linecap="round" points="90.0,600.0 90.0,593.0 90.0,540.4 90.0,493.4 90.0,459.7 90.0,438.3 90.0,419.4 90.0,400.8 90.0,387.4 90.0,376.2 90.0,363.3 90.0,352.1 90.0,343.8 90.0,332.3 90.0,318.8 90.0,309.9 90.0,297.4 90.0,289.4 90.0,281.4 90.3,275.0 90.3,267.9 90.3,258.3 90.3,249.0 90.3,241.0 90.3,234.9 90.3,229.2 90.3,220.5 90.3,215.4 90.3,209.6 90.3,203.2 90.3,195.5 90.3,189.8 90.7,186.6 90.7,182.1 90.7,177.3 90.7,173.1 90.7,167.4 90.7,159.3 91.0,153.6 91.0,147.8 91.0,144.6 91.0,140.8 91.0,135.3 91.0,131.5 91.4,128.0 91.4,123.5 91.7,120.3 91.7,116.4 92.4,113.6 92.8,109.7 94.1,105.9 94.5,102.0 94.8,99.1 95.5,95.9 95.5,92.7 96.5,90.2 97.6,87.9 98.3,85.1 100.3,82.8 102.4,81.5 103.4,79.3 104.8,77.4 107.2,76.4 109.6,75.4 112.7,75.1 115.5,74.5 117.9,73.5 120.0,70.6 124.1,70.6 127.2,70.3 130.6,70.3 134.1,70.3 137.5,70.3 141.0,70.3 144.4,70.3 147.9,70.0 151.3,70.0 155.1,70.0 158.5,70.0 162.0,70.0 165.4,70.0 169.6,70.0 174.0,70.0 177.5,70.0 181.3,70.0 184.7,70.0 188.2,70.0 191.6,70.0 195.0,70.0 198.5,70.0 202.3,70.0 205.7,70.0 209.2,70.0 212.6,70.0 216.1,70.0 219.5,70.0 223.3,70.0 226.7,70.0 230.2,70.0 233.6,70.0 237.4,70.0 240.9,70.0 244.3,70.0 247.7,70.0 251.2,70.0 255.0,70.0 258.4,70.0 262.2,70.0 265.6,70.0 269.1,70.0 272.5,70.0 276.0,70.0 279.8,70.0 283.2,70.0 286.7,70.0 290.1,70.0 293.5,70.0 297.3,70.0 300.8,70.0 304.6,70.0 308.4,70.0 311.8,70.0 315.2,70.0 318.7,70.0 322.1,70.0 325.9,70.0 330.1,70.0 333.5,70.0 337.3,70.0 340.7,70.0 344.2,70.0 348.3,70.0 351.8,70.0 355.5,70.0 359.0,70.0 362.8,70.0 366.2,70.0 369.7,70.0 373.1,70.0 376.5,70.0 380.0,70.0 383.8,70.0 387.2,70.0 390.7,70.0 394.5,70.0 398.2,70.0 401.7,70.0 405.1,70.0 408.6,70.0 412.0,70.0 415.8,70.0 419.3,70.0 422.7,70.0 426.1,70.0 429.6,70.0 433.4,70.0 436.8,70.0 440.3,70.0 444.1,70.0 447.5,70.0 450.9,70.0 454.4,70.0 457.8,70.0 461.3,70.0 464.7,70.0 468.5,70.0 472.3,70.0 475.7,70.0 479.2,70.0 482.6,70.0 486.4,70.0 490.2,70.0 494.0,70.0 497.4,70.0 500.9,70.0 504.3,70.0 508.1,70.0 511.6,70.0 515.0,70.0 518.4,70.0 521.9,70.0 525.3,70.0 528.8,70.0 532.2,70.0 535.7,70.0 539.1,70.0 542.6,70.0 546.0,70.0 549.8,70.0 553.2,70.0 557.0,70.0 560.5,70.0 563.9,70.0 567.4,70.0 570.8,70.0 574.2,70.0 577.7,70.0 581.1,70.0 584.6,70.0 588.0,70.0 591.5,70.0 594.9,70.0 598.4,70.0 601.8,70.0 605.2,70.0 608.7,70.0 612.1,70.0 615.9,70.0 619.4,70.0 622.8,70.0 626.2,70.0 629.7,70.0 633.8,70.0 637.3,70.0 640.7,70.0 644.2,70.0 647.6,70.0 651.0,70.0 654.5,70.0 657.9,70.0 660.0,70.0"/>
<circle cx="660.0" cy="70.0" r="3.5" fill="#d62728"/>
<line x1="680" y1="113" x2="708" y2="113" stroke="#d62728" stroke-width="3"/>
<text x="716" y="118" font-family="Arial, Helvetica, sans-serif" font-size="12">WAM (AUC=0.9982)</text>
<polyline fill="none" stroke="#2ca02c" stroke-width="2.8" stroke-linejoin="round" stroke-linecap="round" points="90.0,600.0 90.0,593.0 90.0,542.4 90.0,497.5 90.0,473.2 90.0,441.8 90.0,424.8 90.0,409.1 90.0,395.7 90.0,379.4 90.0,364.6 90.0,351.8 90.0,341.2 90.0,326.8 90.0,318.5 90.0,309.2 90.0,299.0 90.0,289.7 90.0,280.4 90.0,271.4 90.0,263.1 90.0,257.7 90.0,250.9 90.0,238.4 90.0,229.2 90.0,220.8 90.0,214.4 90.0,206.7 90.0,197.1 90.0,191.4 90.7,187.2 91.0,179.8 91.0,173.1 91.0,164.8 91.0,160.9 91.4,154.9 91.7,148.1 92.1,143.3 92.1,139.5 92.4,135.3 92.4,130.5 92.4,126.7 92.4,121.9 92.4,118.4 92.8,115.2 92.8,111.3 93.1,106.5 93.4,102.7 93.4,98.8 93.8,93.1 94.5,89.2 94.8,86.0 97.2,84.4 100.0,82.8 101.7,80.2 104.1,79.0 105.5,76.4 108.6,75.8 111.0,74.5 114.1,72.2 117.2,71.6 120.3,71.0 123.8,70.6 127.5,70.6 131.0,70.3 134.8,70.3 138.2,70.0 142.4,70.0 146.1,70.0 149.9,70.0 153.7,70.0 157.5,70.0 161.3,70.0 165.1,70.0 168.9,70.0 173.0,70.0 176.8,70.0 180.6,70.0 184.4,70.0 188.5,70.0 192.3,70.0 196.1,70.0 199.9,70.0 203.7,70.0 207.4,70.0 211.2,70.0 215.0,70.0 218.8,70.0 222.6,70.0 226.4,70.0 230.2,70.0 234.0,70.0 237.8,70.0 241.5,70.0 245.3,70.0 249.1,70.0 253.3,70.0 257.0,70.0 260.8,70.0 264.6,70.0 268.4,70.0 272.2,70.0 276.0,70.0 279.8,70.0 283.6,70.0 287.3,70.0 291.1,70.0 294.9,70.0 298.7,70.0 302.5,70.0 306.3,70.0 310.1,70.0 313.9,70.0 317.7,70.0 321.4,70.0 325.2,70.0 329.0,70.0 332.8,70.0 336.6,70.0 340.4,70.0 344.2,70.0 348.0,70.0 351.8,70.0 355.5,70.0 359.3,70.0 363.1,70.0 366.9,70.0 370.7,70.0 374.5,70.0 378.6,70.0 382.4,70.0 386.2,70.0 390.0,70.0 393.8,70.0 397.6,70.0 401.3,70.0 405.1,70.0 408.9,70.0 412.7,70.0 416.5,70.0 420.3,70.0 424.1,70.0 427.9,70.0 431.7,70.0 435.4,70.0 439.2,70.0 443.0,70.0 446.8,70.0 450.6,70.0 454.4,70.0 458.2,70.0 462.0,70.0 465.8,70.0 469.5,70.0 473.3,70.0 477.1,70.0 480.9,70.0 484.7,70.0 488.5,70.0 492.3,70.0 496.1,70.0 499.8,70.0 503.6,70.0 507.4,70.0 511.2,70.0 515.7,70.0 519.5,70.0 523.3,70.0 527.1,70.0 531.2,70.0 535.0,70.0 538.8,70.0 542.6,70.0 546.3,70.0 550.1,70.0 553.9,70.0 558.1,70.0 561.8,70.0 565.6,70.0 569.4,70.0 573.2,70.0 577.0,70.0 580.8,70.0 584.6,70.0 588.4,70.0 592.2,70.0 595.9,70.0 599.7,70.0 603.5,70.0 607.3,70.0 611.1,70.0 614.9,70.0 618.7,70.0 622.5,70.0 626.2,70.0 630.0,70.0 633.8,70.0 637.6,70.0 641.4,70.0 645.2,70.0 649.0,70.0 652.8,70.0 656.9,70.0 660.0,70.0"/>
<circle cx="660.0" cy="70.0" r="3.5" fill="#2ca02c"/>
<line x1="680" y1="135" x2="708" y2="135" stroke="#2ca02c" stroke-width="3"/>
<text x="716" y="140" font-family="Arial, Helvetica, sans-serif" font-size="12">BN Chow-Liu (AUC=0.9984)</text>
<polyline fill="none" stroke="#9467bd" stroke-width="2.8" stroke-linejoin="round" stroke-linecap="round" points="90.0,600.0 90.0,597.1 90.0,552.6 90.0,524.4 90.0,497.2 90.0,452.0 90.0,429.3 90.0,410.7 90.0,389.0 90.0,379.0 90.0,367.5 90.0,358.2 90.0,343.8 90.0,330.7 90.0,321.1 90.0,312.7 90.0,306.7 90.0,299.9 90.0,293.5 90.0,285.2 90.0,280.7 90.0,271.1 90.0,264.7 90.0,256.1 90.0,242.9 90.3,235.6 90.7,226.9 90.7,217.6 90.7,212.8 90.7,201.3 90.7,195.2 90.7,185.0 90.7,178.6 90.7,172.8 90.7,167.4 91.0,162.2 91.0,156.1 91.0,148.5 91.0,143.7 91.0,138.9 91.0,133.7 91.0,128.3 91.0,120.6 91.0,115.2 91.0,109.1 91.0,105.5 91.0,101.4 91.0,97.9 91.7,94.0 92.4,90.8 93.1,87.6 93.8,84.4 95.2,82.2 97.6,80.2 99.6,78.3 102.1,76.7 104.5,75.4 106.2,71.9 108.6,70.6 112.4,70.6 115.8,70.3 119.6,70.3 123.4,70.3 126.9,70.0 130.6,70.0 134.4,70.0 138.2,70.0 142.0,70.0 145.8,70.0 149.6,70.0 153.7,70.0 157.5,70.0 161.3,70.0 165.1,70.0 168.9,70.0 172.7,70.0 176.4,70.0 180.2,70.0 184.0,70.0 187.8,70.0 191.6,70.0 195.4,70.0 199.5,70.0 203.3,70.0 207.4,70.0 211.2,70.0 215.0,70.0 218.8,70.0 222.6,70.0 226.4,70.0 230.2,70.0 234.0,70.0 237.8,70.0 241.5,70.0 245.3,70.0 249.1,70.0 252.9,70.0 256.7,70.0 260.5,70.0 264.3,70.0 268.1,70.0 271.8,70.0 275.6,70.0 279.4,70.0 283.2,70.0 287.0,70.0 290.8,70.0 294.6,70.0 298.4,70.0 302.2,70.0 305.9,70.0 309.7,70.0 313.5,70.0 317.3,70.0 321.1,70.0 324.9,70.0 328.7,70.0 332.5,70.0 336.3,70.0 340.0,70.0 343.8,70.0 347.6,70.0 351.4,70.0 355.5,70.0 359.3,70.0 363.1,70.0 366.9,70.0 370.7,70.0 374.5,70.0 378.3,70.0 382.1,70.0 385.8,70.0 389.6,70.0 393.4,70.0 397.2,70.0 401.0,70.0 404.8,70.0 408.9,70.0 412.7,70.0 416.5,70.0 420.3,70.0 424.1,70.0 427.9,70.0 431.7,70.0 435.4,70.0 439.2,70.0 443.0,70.0 446.8,70.0 450.6,70.0 454.4,70.0 458.2,70.0 462.3,70.0 466.1,70.0 469.9,70.0 473.7,70.0 477.5,70.0 481.3,70.0 485.0,70.0 488.8,70.0 492.6,70.0 496.4,70.0 500.2,70.0 504.0,70.0 507.8,70.0 511.6,70.0 515.3,70.0 519.1,70.0 522.9,70.0 526.7,70.0 530.5,70.0 534.3,70.0 538.1,70.0 541.9,70.0 545.7,70.0 549.4,70.0 553.2,70.0 557.0,70.0 560.8,70.0 564.6,70.0 568.4,70.0 572.2,70.0 576.0,70.0 579.8,70.0 583.5,70.0 587.3,70.0 591.1,70.0 594.9,70.0 598.7,70.0 602.5,70.0 606.3,70.0 610.1,70.0 613.8,70.0 617.6,70.0 621.4,70.0 625.2,70.0 629.0,70.0 632.8,70.0 636.6,70.0 640.4,70.0 644.2,70.0 648.6,70.0 652.4,70.0 656.2,70.0 660.0,70.0"/>
<circle cx="660.0" cy="70.0" r="3.5" fill="#9467bd"/>
<line x1="680" y1="157" x2="708" y2="157" stroke="#9467bd" stroke-width="3"/>
<text x="716" y="162" font-family="Arial, Helvetica, sans-serif" font-size="12">SVM (RBF) (AUC=0.9990)</text>
<text x="460.0" y="656" text-anchor="middle" font-family="Arial, Helvetica, sans-serif" font-size="13">False Positive Rate</text>
<text x="22" y="340.0" transform="rotate(-90 22 340.0)" text-anchor="middle" font-family="Arial, Helvetica, sans-serif" font-size="13">True Positive Rate</text>
</svg>
