<?xml version="1.0" encoding="UTF-8"?>
<svg xmlns="http://www.w3.org/2000/svg" width="920" height="680" viewBox="0 0 920 680">
<rect x="0" y="0" width="920" height="680" fill="#ffffff"/>
<text x="460.0" y="34" text-anchor="middle" font-family="Arial, Helvetica, sans-serif" font-size="22" font-weight="700">ROC Curves for Splice Site Prediction</text>
<line x1="90" y1="600" x2="660" y2="600" stroke="#222" stroke-width="1.5"/>
<line x1="90" y1="70" x2="90" y2="600" stroke="#222" stroke-width="1.5"/>
<line x1="90.0" y1="70" x2="90.0" y2="600" stroke="#e6e6e6" stroke-width="1"/>
<line x1="90" y1="600.0" x2="660" y2="600.0" stroke="#e6e6e6" stroke-width="1"/>
<text x="90.0" y="624" text-anchor="middle" font-family="Arial, Helvetica, sans-serif" font-size="12">0.0</text>
<text x="78" y="604.0" text-anchor="end" font-family="Arial, Helvetica, sans-serif" font-size="12">0.0</text>
<line x1="204.0" y1="70" x2="204.0" y2="600" stroke="#e6e6e6" stroke-width="1"/>
<line x1="90" y1="494.0" x2="660" y2="494.0" stroke="#e6e6e6" stroke-width="1"/>
<text x="204.0" y="624" text-anchor="middle" font-family="Arial, Helvetica, sans-serif" font-size="12">0.2</text>
<text x="78" y="498.0" text-anchor="end" font-family="Arial, Helvetica, sans-serif" font-size="12">0.2</text>
<line x1="318.0" y1="70" x2="318.0" y2="600" stroke="#e6e6e6" stroke-width="1"/>
<line x1="90" y1="388.0" x2="660" y2="388.0" stroke="#e6e6e6" stroke-width="1"/>
<text x="318.0" y="624" text-anchor="middle" font-family="Arial, Helvetica, sans-serif" font-size="12">0.4</text>
<text x="78" y="392.0" text-anchor="end" font-family="Arial, Helvetica, sans-serif" font-size="12">0.4</text>
<line x1="432.0" y1="70" x2="432.0" y2="600" stroke="#e6e6e6" stroke-width="1"/>
<line x1="90" y1="282.0" x2="660" y2="282.0" stroke="#e6e6e6" stroke-width="1"/>
<text x="432.0" y="624" text-anchor="middle" font-family="Arial, Helvetica, sans-serif" font-size="12">0.6</text>
<text x="78" y="286.0" text-anchor="end" font-family="Arial, Helvetica, sans-serif" font-size="12">0.6</text>
<line x1="546.0" y1="70" x2="546.0" y2="600" stroke="#e6e6e6" stroke-width="1"/>
<line x1="90" y1="176.0" x2="660" y2="176.0" stroke="#e6e6e6" stroke-width="1"/>
<text x="546.0" y="624" text-anchor="middle" font-family="Arial, Helvetica, sans-serif" font-size="12">0.8</text>
<text x="78" y="180.0" text-anchor="end" font-family="Arial, Helvetica, sans-serif" font-size="12">0.8</text>
<line x1="660.0" y1="70" x2="660.0" y2="600" stroke="#e6e6e6" stroke-width="1"/>
<line x1="90" y1="70.0" x2="660" y2="70.0" stroke="#e6e6e6" stroke-width="1"/>
<text x="660.0" y="624" text-anchor="middle" font-family="Arial, Helvetica, sans-serif" font-size="12">1.0</text>
<text x="78" y="74.0" text-anchor="end" font-family="Arial, Helvetica, sans-serif" font-size="12">1.0</text>
<line x1="90.0" y1="600.0" x2="660.0" y2="70.0" stroke="#777" stroke-width="1.5" stroke-dasharray="6,5"/>
<text x="680" y="80" font-family="Arial, Helvetica, sans-serif" font-size="14" font-weight="700">Legend</text>
<polyline fill="none" stroke="#1f77b4" stroke-width="2.8" stroke-linejoin="round" stroke-linecap="round" points="90.0,600.0 90.0,596.4 90.0,592.8 90.0,589.2 90.0,585.6 90.0,582.0 90.0,578.4 90.0,574.8 90.0,571.2 90.0,567.6 90.0,563.9 90.0,560.3 90.0,556.7 90.0,553.1 90.0,549.5 90.0,545.9 90.0,542.3 90.0,538.7 90.0,535.1 90.0,531.5 90.0,527.9 90.0,524.3 90.0,520.7 90.0,517.1 90.0,513.5 90.0,509.9 90.0,506.3 90.0,502.7 90.0,499.0 90.0,495.4 90.0,491.8 90.0,488.2 90.0,484.6 90.0,481.0 90.0,477.4 90.0,473.8 90.0,470.2 90.0,466.6 90.0,463.0 90.0,459.4 90.0,455.8 90.0,452.2 90.0,448.6 90.0,445.0 90.0,441.4 90.0,437.8 90.0,434.1 90.0,430.5 90.0,426.9 90.0,423.3 90.0,419.7 90.0,416.1 90.0,412.5 90.0,408.9 90.0,405.3 90.0,401.7 90.0,398.1 90.0,394.5 90.0,390.9 90.0,387.3 90.0,383.7 93.9,383.7 93.9,380.1 93.9,376.5 93.9,372.9 93.9,369.3 93.9,365.6 93.9,362.0 93.9,358.4 93.9,354.8 97.8,354.8 97.8,351.2 97.8,347.6 97.8,344.0 97.8,340.4 97.8,336.8 97.8,333.2 97.8,329.6 97.8,326.0 97.8,322.4 101.6,322.4 101.6,318.8 101.6,315.2 101.6,311.6 101.6,308.0 101.6,304.4 101.6,300.7 101.6,297.1 101.6,293.5 101.6,289.9 101.6,286.3 101.6,282.7 101.6,279.1 101.6,275.5 101.6,271.9 101.6,268.3 105.5,268.3 105.5,264.7 105.5,261.1 105.5,257.5 105.5,253.9 105.5,250.3 105.5,246.7 105.5,243.1 105.5,239.5 105.5,235.9 105.5,232.2 109.4,232.2 109.4,228.6 113.3,228.6 117.1,228.6 121.0,228.6 121.0,225.0 121.0,221.4 121.0,217.8 124.9,217.8 124.9,214.2 124.9,210.6 128.8,210.6 128.8,207.0 128.8,203.4 128.8,199.8 128.8,196.2 132.7,196.2 132.7,192.6 136.5,192.6 136.5,189.0 136.5,185.4 136.5,181.8 136.5,178.2 140.4,178.2 140.4,174.6 140.4,171.0 140.4,167.3 144.3,167.3 148.2,167.3 148.2,163.7 152.0,163.7 155.9,163.7 159.8,163.7 159.8,160.1 163.7,160.1 163.7,156.5 163.7,152.9 163.7,149.3 167.6,149.3 171.4,149.3 175.3,149.3 179.2,149.3 183.1,149.3 186.9,149.3 186.9,145.7 186.9,142.1 186.9,138.5 190.8,138.5 194.7,138.5 198.6,138.5 198.6,134.9 202.4,134.9 202.4,131.3 206.3,131.3 206.3,127.7 210.2,127.7 214.1,127.7 218.0,127.7 221.8,127.7 221.8,124.1 225.7,124.1 229.6,124.1 233.5,124.1 237.3,124.1 241.2,124.1 245.1,124.1 249.0,124.1 252.9,124.1 256.7,124.1 260.6,124.1 264.5,124.1 268.4,124.1 272.2,124.1 276.1,124.1 280.0,124.1 283.9,124.1 283.9,120.5 283.9,116.9 287.8,116.9 291.6,116.9 295.5,116.9 299.4,116.9 303.3,116.9 307.1,116.9 307.1,113.3 311.0,113.3 314.9,113.3 318.8,113.3 318.8,109.7 322.7,109.7 326.5,109.7 330.4,109.7 334.3,109.7 334.3,106.1 338.2,106.1 338.2,102.4 342.0,102.4 345.9,102.4 349.8,102.4 349.8,98.8 353.7,98.8 357.6,98.8 357.6,95.2 361.4,95.2 361.4,91.6 361.4,88.0 365.3,88.0 369.2,88.0 373.1,88.0 376.9,88.0 380.8,88.0 380.8,84.4 384.7,84.4 388.6,84.4 388.6,80.8 392.4,80.8 396.3,80.8 400.2,80.8 404.1,80.8 408.0,80.8 411.8,80.8 415.7,80.8 419.6,80.8 423.5,80.8 427.3,80.8 431.2,80.8 431.2,77.2 435.1,77.2 439.0,77.2 442.9,77.2 446.7,77.2 450.6,77.2 454.5,77.2 458.4,77.2 462.2,77.2 466.1,77.2 470.0,77.2 473.9,77.2 477.8,77.2 477.8,73.6 481.6,73.6 485.5,73.6 489.4,73.6 493.3,73.6 497.1,73.6 501.0,73.6 504.9,73.6 508.8,73.6 512.7,73.6 516.5,73.6 520.4,73.6 524.3,73.6 528.2,73.6 532.0,73.6 535.9,73.6 539.8,73.6 543.7,73.6 547.6,73.6 547.6,70.0 551.4,70.0 555.3,70.0 559.2,70.0 563.1,70.0 566.9,70.0 570.8,70.0 574.7,70.0 578.6,70.0 582.4,70.0 586.3,70.0 590.2,70.0 594.1,70.0 598.0,70.0 601.8,70.0 605.7,70.0 609.6,70.0 613.5,70.0 617.3,70.0 621.2,70.0 625.1,70.0 629.0,70.0 632.9,70.0 636.7,70.0 640.6,70.0 644.5,70.0 648.4,70.0 652.2,70.0 656.1,70.0 660.0,70.0 660.0,70.0"/>
<circle cx="660.0" cy="70.0" r="3.5" fill="#1f77b4"/>
<line x1="680" y1="91" x2="708" y2="91" stroke="#1f77b4" stroke-width="3"/>
<text x="716" y="96" font-family="Arial, Helvetica, sans-serif" font-size="12">BN Chow-Liu (AUC=0.9233)</text>
<polyline fill="none" stroke="#d62728" stroke-width="2.8" stroke-linejoin="round" stroke-linecap="round" points="90.0,600.0 90.0,596.4 90.0,592.8 90.0,589.2 90.0,585.6 90.0,582.0 90.0,578.4 90.0,574.8 90.0,571.2 90.0,567.6 90.0,563.9 90.0,560.3 90.0,556.7 90.0,553.1 90.0,549.5 90.0,545.9 90.0,542.3 90.0,538.7 90.0,535.1 90.0,531.5 90.0,527.9 90.0,524.3 90.0,520.7 90.0,517.1 90.0,513.5 90.0,509.9 90.0,506.3 90.0,502.7 90.0,499.0 90.0,495.4 93.9,495.4 93.9,491.8 93.9,488.2 93.9,484.6 93.9,481.0 93.9,477.4 93.9,473.8 93.9,470.2 93.9,466.6 93.9,463.0 93.9,459.4 93.9,455.8 93.9,452.2 93.9,448.6 93.9,445.0 93.9,441.4 93.9,437.8 93.9,434.1 93.9,430.5 93.9,426.9 93.9,423.3 93.9,419.7 93.9,416.1 93.9,412.5 93.9,408.9 93.9,405.3 93.9,401.7 93.9,398.1 93.9,394.5 93.9,390.9 93.9,387.3 93.9,383.7 93.9,380.1 93.9,376.5 93.9,372.9 97.8,372.9 97.8,369.3 97.8,365.6 97.8,362.0 97.8,358.4 97.8,354.8 97.8,351.2 97.8,347.6 97.8,344.0 97.8,340.4 101.6,340.4 101.6,336.8 101.6,333.2 101.6,329.6 101.6,326.0 101.6,322.4 105.5,322.4 105.5,318.8 105.5,315.2 105.5,311.6 105.5,308.0 109.4,308.0 113.3,308.0 113.3,304.4 113.3,300.7 113.3,297.1 113.3,293.5 113.3,289.9 113.3,286.3 113.3,282.7 117.1,282.7 117.1,279.1 117.1,275.5 117.1,271.9 117.1,268.3 117.1,264.7 117.1,261.1 117.1,257.5 117.1,253.9 117.1,250.3 117.1,246.7 121.0,246.7 121.0,243.1 121.0,239.5 124.9,239.5 124.9,235.9 128.8,235.9 128.8,232.2 128.8,228.6 128.8,225.0 128.8,221.4 132.7,221.4 136.5,221.4 136.5,217.8 136.5,214.2 136.5,210.6 136.5,207.0 136.5,203.4 136.5,199.8 136.5,196.2 140.4,196.2 144.3,196.2 144.3,192.6 148.2,192.6 148.2,189.0 148.2,185.4 152.0,185.4 155.9,185.4 155.9,181.8 155.9,178.2 155.9,174.6 159.8,174.6 163.7,174.6 167.6,174.6 167.6,171.0 171.4,171.0 171.4,167.3 175.3,167.3 175.3,163.7 175.3,160.1 175.3,156.5 175.3,152.9 179.2,152.9 183.1,152.9 186.9,152.9 186.9,149.3 190.8,149.3 194.7,149.3 198.6,149.3 198.6,145.7 202.4,145.7 206.3,145.7 210.2,145.7 214.1,145.7 218.0,145.7 221.8,145.7 221.8,142.1 225.7,142.1 229.6,142.1 233.5,142.1 233.5,138.5 237.3,138.5 241.2,138.5 245.1,138.5 245.1,134.9 249.0,134.9 252.9,134.9 252.9,131.3 256.7,131.3 260.6,131.3 260.6,127.7 264.5,127.7 268.4,127.7 272.2,127.7 276.1,127.7 276.1,124.1 280.0,124.1 283.9,124.1 287.8,124.1 287.8,120.5 291.6,120.5 291.6,116.9 295.5,116.9 299.4,116.9 303.3,116.9 307.1,116.9 307.1,113.3 311.0,113.3 311.0,109.7 314.9,109.7 318.8,109.7 322.7,109.7 326.5,109.7 326.5,106.1 330.4,106.1 334.3,106.1 334.3,102.4 338.2,102.4 342.0,102.4 345.9,102.4 349.8,102.4 349.8,98.8 349.8,95.2 353.7,95.2 357.6,95.2 361.4,95.2 365.3,95.2 365.3,91.6 369.2,91.6 373.1,91.6 376.9,91.6 380.8,91.6 380.8,88.0 384.7,88.0 388.6,88.0 392.4,88.0 392.4,84.4 392.4,80.8 396.3,80.8 400.2,80.8 404.1,80.8 408.0,80.8 411.8,80.8 415.7,80.8 419.6,80.8 423.5,80.8 427.3,80.8 427.3,77.2 431.2,77.2 435.1,77.2 435.1,73.6 439.0,73.6 442.9,73.6 446.7,73.6 450.6,73.6 454.5,73.6 458.4,73.6 462.2,73.6 466.1,73.6 470.0,73.6 473.9,73.6 477.8,73.6 481.6,73.6 485.5,73.6 489.4,73.6 493.3,73.6 493.3,70.0 497.1,70.0 501.0,70.0 504.9,70.0 508.8,70.0 512.7,70.0 516.5,70.0 520.4,70.0 524.3,70.0 528.2,70.0 532.0,70.0 535.9,70.0 539.8,70.0 543.7,70.0 547.6,70.0 551.4,70.0 555.3,70.0 559.2,70.0 563.1,70.0 566.9,70.0 570.8,70.0 574.7,70.0 578.6,70.0 582.4,70.0 586.3,70.0 590.2,70.0 594.1,70.0 598.0,70.0 601.8,70.0 605.7,70.0 609.6,70.0 613.5,70.0 617.3,70.0 621.2,70.0 625.1,70.0 629.0,70.0 632.9,70.0 636.7,70.0 640.6,70.0 644.5,70.0 648.4,70.0 652.2,70.0 656.1,70.0 660.0,70.0 660.0,70.0"/>
<circle cx="660.0" cy="70.0" r="3.5" fill="#d62728"/>
<line x1="680" y1="113" x2="708" y2="113" stroke="#d62728" stroke-width="3"/>
<text x="716" y="118" font-family="Arial, Helvetica, sans-serif" font-size="12">BN EBN(p=2) (AUC=0.9111)</text>
<text x="460.0" y="656" text-anchor="middle" font-family="Arial, Helvetica, sans-serif" font-size="13">False Positive Rate</text>
<text x="22" y="340.0" transform="rotate(-90 22 340.0)" text-anchor="middle" font-family="Arial, Helvetica, sans-serif" font-size="13">True Positive Rate</text>
</svg>
