<?xml version="1.0" encoding="UTF-8"?>
<svg xmlns="http://www.w3.org/2000/svg" width="920" height="680" viewBox="0 0 920 680">
<rect x="0" y="0" width="920" height="680" fill="#ffffff"/>
<text x="460.0" y="34" text-anchor="middle" font-family="Arial, Helvetica, sans-serif" font-size="22" font-weight="700">ROC Curves for Splice Site Prediction</text>
<line x1="90" y1="600" x2="660" y2="600" stroke="#222" stroke-width="1.5"/>
<line x1="90" y1="70" x2="90" y2="600" stroke="#222" stroke-width="1.5"/>
<line x1="90.0" y1="70" x2="90.0" y2="600" stroke="#e6e6e6" stroke-width="1"/>
<line x1="90" y1="600.0" x2="660" y2="600.0" stroke="#e6e6e6" stroke-width="1"/>
<text x="90.0" y="624" text-anchor="middle" font-family="Arial, Helvetica, sans-serif" font-size="12">0.0</text>
<text x="78" y="604.0" text-anchor="end" font-family="Arial, Helvetica, sans-serif" font-size="12">0.0</text>
<line x1="204.0" y1="70" x2="204.0" y2="600" stroke="#e6e6e6" stroke-width="1"/>
<line x1="90" y1="494.0" x2="660" y2="494.0" stroke="#e6e6e6" stroke-width="1"/>
<text x="204.0" y="624" text-anchor="middle" font-family="Arial, Helvetica, sans-serif" font-size="12">0.2</text>
<text x="78" y="498.0" text-anchor="end" font-family="Arial, Helvetica, sans-serif" font-size="12">0.2</text>
<line x1="318.0" y1="70" x2="318.0" y2="600" stroke="#e6e6e6" stroke-width="1"/>
<line x1="90" y1="388.0" x2="660" y2="388.0" stroke="#e6e6e6" stroke-width="1"/>
<text x="318.0" y="624" text-anchor="middle" font-family="Arial, Helvetica, sans-serif" font-size="12">0.4</text>
<text x="78" y="392.0" text-anchor="end" font-family="Arial, Helvetica, sans-serif" font-size="12">0.4</text>
<line x1="432.0" y1="70" x2="432.0" y2="600" stroke="#e6e6e6" stroke-width="1"/>
<line x1="90" y1="282.0" x2="660" y2="282.0" stroke="#e6e6e6" stroke-width="1"/>
<text x="432.0" y="624" text-anchor="middle" font-family="Arial, Helvetica, sans-serif" font-size="12">0.6</text>
<text x="78" y="286.0" text-anchor="end" font-family="Arial, Helvetica, sans-serif" font-size="12">0.6</text>
<line x1="546.0" y1="70" x2="546.0" y2="600" stroke="#e6e6e6" stroke-width="1"/>
<line x1="90" y1="176.0" x2="660" y2="176.0" stroke="#e6e6e6" stroke-width="1"/>
<text x="546.0" y="624" text-anchor="middle" font-family="Arial, Helvetica, sans-serif" font-size="12">0.8</text>
<text x="78" y="180.0" text-anchor="end" font-family="Arial, Helvetica, sans-serif" font-size="12">0.8</text>
<line x1="660.0" y1="70" x2="660.0" y2="600" stroke="#e6e6e6" stroke-width="1"/>
<line x1="90" y1="70.0" x2="660" y2="70.0" stroke="#e6e6e6" stroke-width="1"/>
<text x="660.0" y="624" text-anchor="middle" font-family="Arial, Helvetica, sans-serif" font-size="12">1.0</text>
<text x="78" y="74.0" text-anchor="end" font-family="Arial, Helvetica, sans-serif" font-size="12">1.0</text>
<line x1="90.0" y1="600.0" x2="660.0" y2="70.0" stroke="#777" stroke-width="1.5" stroke-dasharray="6,5"/>
<text x="680" y="80" font-family="Arial, Helvetica, sans-serif" font-size="14" font-weight="700">Legend</text>
<polyline fill="none" stroke="#1f77b4" stroke-width="2.8" stroke-linejoin="round" stroke-linecap="round" points="90.0,600.0 90.0,597.1 90.0,541.2 90.0,495.5 90.0,467.6 90.0,436.7 90.0,421.0 90.0,404.9 90.0,382.7 90.0,372.4 90.0,357.7 90.0,342.9 90.0,331.9 90.0,319.4 90.0,311.7 90.0,299.5 90.0,290.2 90.0,284.7 90.0,278.6 90.0,269.6 90.0,262.8 90.0,252.9 90.3,246.5 90.3,241.0 90.3,228.5 90.3,224.3 90.3,218.2 90.3,211.1 90.3,204.7 90.7,199.2 90.7,194.7 90.7,189.9 90.7,186.3 90.7,179.9 90.7,173.8 90.7,166.4 91.0,160.6 91.0,153.9 91.0,147.8 91.4,143.9 91.7,139.7 92.1,133.0 92.1,129.1 92.1,123.4 92.1,117.2 92.4,112.4 92.8,107.3 93.5,101.5 94.5,96.4 94.8,92.5 95.5,88.0 96.6,85.4 98.0,82.9 99.0,80.3 100.4,77.7 103.5,77.1 106.2,76.1 109.7,75.8 111.8,72.6 114.9,71.9 118.7,71.9 122.1,71.6 125.6,71.3 129.1,71.0 132.5,70.6 135.6,70.0 139.8,70.0 143.6,70.0 147.4,70.0 151.2,70.0 155.0,70.0 158.8,70.0 162.6,70.0 166.4,70.0 170.2,70.0 174.0,70.0 177.8,70.0 181.6,70.0 185.7,70.0 189.6,70.0 193.4,70.0 197.2,70.0 201.0,70.0 204.8,70.0 208.6,70.0 212.4,70.0 216.2,70.0 220.0,70.0 223.8,70.0 227.6,70.0 231.4,70.0 235.2,70.0 239.0,70.0 242.8,70.0 246.6,70.0 250.4,70.0 254.2,70.0 258.0,70.0 261.8,70.0 265.9,70.0 269.7,70.0 273.5,70.0 277.3,70.0 281.2,70.0 285.0,70.0 288.8,70.0 292.6,70.0 296.4,70.0 300.2,70.0 304.0,70.0 307.8,70.0 311.9,70.0 315.7,70.0 319.5,70.0 323.3,70.0 327.1,70.0 330.9,70.0 334.7,70.0 338.5,70.0 342.7,70.0 346.5,70.0 350.3,70.0 354.1,70.0 357.9,70.0 362.0,70.0 365.8,70.0 369.6,70.0 373.4,70.0 377.2,70.0 381.0,70.0 385.2,70.0 389.0,70.0 392.8,70.0 396.6,70.0 400.4,70.0 404.2,70.0 408.0,70.0 411.8,70.0 415.6,70.0 419.4,70.0 423.2,70.0 427.0,70.0 430.8,70.0 434.6,70.0 438.4,70.0 442.2,70.0 446.0,70.0 449.8,70.0 453.6,70.0 457.4,70.0 461.2,70.0 465.0,70.0 468.8,70.0 472.7,70.0 476.5,70.0 480.3,70.0 484.1,70.0 487.9,70.0 491.7,70.0 495.5,70.0 499.3,70.0 503.1,70.0 506.9,70.0 510.7,70.0 514.5,70.0 518.3,70.0 522.1,70.0 525.9,70.0 529.7,70.0 533.8,70.0 537.6,70.0 541.4,70.0 545.2,70.0 549.0,70.0 552.8,70.0 556.6,70.0 560.4,70.0 564.3,70.0 568.1,70.0 572.2,70.0 576.0,70.0 579.8,70.0 583.6,70.0 587.4,70.0 591.2,70.0 595.0,70.0 598.8,70.0 603.0,70.0 606.8,70.0 610.6,70.0 614.4,70.0 618.2,70.0 622.0,70.0 625.8,70.0 629.6,70.0 633.4,70.0 637.2,70.0 641.0,70.0 645.5,70.0 649.3,70.0 653.1,70.0 656.9,70.0 660.0,70.0"/>
<circle cx="660.0" cy="70.0" r="3.5" fill="#1f77b4"/>
<line x1="680" y1="91" x2="708" y2="91" stroke="#1f77b4" stroke-width="3"/>
<text x="716" y="96" font-family="Arial, Helvetica, sans-serif" font-size="12">WMM (AUC=0.9984)</text>
<polyline fill="none" stroke="#d62728" stroke-width="2.8" stroke-linejoin="round" stroke-linecap="round" points="90.0,600.0 90.0,591.3 90.0,548.6 90.0,507.8 90.0,471.4 90.0,449.3 90.0,419.7 90.0,403.0 90.0,385.6 90.0,373.1 90.0,363.8 90.0,353.5 90.0,342.9 90.0,327.4 90.0,319.4 90.0,305.6 90.0,296.3 90.0,286.3 90.0,277.0 90.0,265.1 90.0,256.1 90.0,241.6 90.0,232.0 90.0,227.2 90.0,219.8 90.0,213.7 90.0,206.9 90.0,199.8 90.3,195.7 90.3,188.0 90.3,183.1 90.3,176.4 90.3,170.3 90.3,162.6 90.3,157.7 90.3,152.6 90.3,144.2 90.3,138.8 90.3,134.3 91.0,131.1 91.0,127.2 91.4,124.0 91.4,119.5 91.7,116.0 91.7,111.8 92.1,108.2 92.8,105.4 93.5,100.5 94.1,96.7 94.5,91.9 95.2,88.3 95.5,84.1 96.6,81.2 98.3,79.3 100.0,77.4 102.8,76.4 105.9,75.8 109.0,75.1 112.8,75.1 116.3,74.8 118.3,73.2 121.1,70.6 124.6,70.3 128.4,70.3 131.8,70.0 135.6,70.0 139.4,70.0 143.2,70.0 147.0,70.0 150.8,70.0 154.6,70.0 158.4,70.0 162.2,70.0 166.0,70.0 169.8,70.0 173.7,70.0 177.5,70.0 181.6,70.0 185.4,70.0 189.2,70.0 193.0,70.0 196.8,70.0 200.6,70.0 204.4,70.0 208.2,70.0 212.0,70.0 215.8,70.0 219.6,70.0 223.4,70.0 227.2,70.0 231.4,70.0 235.2,70.0 239.0,70.0 243.1,70.0 246.9,70.0 250.7,70.0 254.5,70.0 258.3,70.0 262.1,70.0 265.9,70.0 269.7,70.0 273.5,70.0 277.3,70.0 281.5,70.0 285.3,70.0 289.1,70.0 292.9,70.0 296.7,70.0 300.5,70.0 304.3,70.0 308.1,70.0 311.9,70.0 315.7,70.0 319.5,70.0 323.3,70.0 327.1,70.0 330.9,70.0 334.7,70.0 338.5,70.0 342.3,70.0 346.5,70.0 350.3,70.0 354.1,70.0 357.9,70.0 361.7,70.0 365.5,70.0 369.3,70.0 373.1,70.0 376.9,70.0 380.7,70.0 384.5,70.0 388.3,70.0 392.1,70.0 395.9,70.0 399.7,70.0 403.9,70.0 407.7,70.0 411.5,70.0 415.3,70.0 419.1,70.0 422.9,70.0 426.7,70.0 430.5,70.0 434.3,70.0 438.1,70.0 441.9,70.0 445.7,70.0 449.5,70.0 453.3,70.0 457.1,70.0 460.9,70.0 464.7,70.0 468.5,70.0 472.3,70.0 476.1,70.0 479.9,70.0 483.7,70.0 487.5,70.0 491.3,70.0 495.1,70.0 500.0,70.0 503.8,70.0 507.6,70.0 511.4,70.0 515.2,70.0 519.0,70.0 522.8,70.0 526.6,70.0 530.4,70.0 534.2,70.0 538.0,70.0 541.8,70.0 545.6,70.0 549.4,70.0 553.2,70.0 557.0,70.0 560.8,70.0 564.6,70.0 568.4,70.0 572.2,70.0 576.0,70.0 579.8,70.0 583.6,70.0 587.4,70.0 591.2,70.0 595.0,70.0 598.8,70.0 602.6,70.0 606.4,70.0 610.2,70.0 614.0,70.0 617.8,70.0 621.6,70.0 625.4,70.0 629.2,70.0 633.0,70.0 637.2,70.0 641.0,70.0 645.1,70.0 648.9,70.0 652.7,70.0 656.9,70.0 660.0,70.0"/>
<circle cx="660.0" cy="70.0" r="3.5" fill="#d62728"/>
<line x1="680" y1="113" x2="708" y2="113" stroke="#d62728" stroke-width="3"/>
<text x="716" y="118" font-family="Arial, Helvetica, sans-serif" font-size="12">WAM (AUC=0.9987)</text>
<polyline fill="none" stroke="#2ca02c" stroke-width="2.8" stroke-linejoin="round" stroke-linecap="round" points="90.0,600.0 90.0,591.3 90.0,539.6 90.0,491.0 90.0,470.2 90.0,440.6 90.0,424.2 90.0,401.7 90.0,382.4 90.0,372.1 90.0,361.5 90.0,345.8 90.0,332.6 90.0,324.9 90.0,318.8 90.0,310.1 90.0,296.3 90.0,286.9 90.0,277.6 90.0,270.6 90.0,262.8 90.0,254.2 90.0,245.8 90.3,239.1 90.3,229.7 90.3,224.6 90.3,217.8 90.3,206.0 90.3,198.2 90.3,191.5 90.3,183.5 90.3,177.3 90.3,170.6 90.3,164.2 90.3,159.0 90.3,152.6 90.7,148.1 90.7,142.0 91.4,135.6 91.4,131.4 91.7,127.5 91.7,124.0 92.1,119.8 92.4,116.3 93.1,113.1 93.1,108.6 93.8,103.1 94.1,99.9 94.5,96.4 95.5,93.8 95.5,89.9 96.6,85.7 97.3,81.9 99.3,80.3 100.7,78.0 102.8,76.4 105.6,75.5 109.4,75.5 112.5,74.8 115.6,72.6 118.7,71.9 122.5,71.9 125.6,71.3 128.7,70.6 132.5,70.6 136.3,70.6 139.4,70.0 143.6,70.0 147.4,70.0 151.2,70.0 155.0,70.0 158.8,70.0 162.6,70.0 166.4,70.0 170.2,70.0 174.3,70.0 178.1,70.0 181.9,70.0 185.7,70.0 189.6,70.0 193.7,70.0 197.5,70.0 201.3,70.0 205.1,70.0 208.9,70.0 212.7,70.0 216.5,70.0 220.3,70.0 224.1,70.0 227.9,70.0 231.7,70.0 235.9,70.0 239.7,70.0 243.5,70.0 247.3,70.0 251.1,70.0 254.9,70.0 258.7,70.0 262.5,70.0 266.6,70.0 270.4,70.0 274.2,70.0 278.0,70.0 281.8,70.0 285.6,70.0 289.4,70.0 293.3,70.0 297.1,70.0 300.9,70.0 304.7,70.0 308.5,70.0 312.3,70.0 316.1,70.0 319.9,70.0 323.7,70.0 327.5,70.0 331.3,70.0 335.1,70.0 338.9,70.0 342.7,70.0 346.5,70.0 350.3,70.0 354.1,70.0 357.9,70.0 361.7,70.0 365.5,70.0 369.3,70.0 373.1,70.0 376.9,70.0 380.7,70.0 384.5,70.0 388.3,70.0 392.1,70.0 395.9,70.0 399.7,70.0 403.5,70.0 407.3,70.0 411.1,70.0 414.9,70.0 418.7,70.0 422.5,70.0 426.3,70.0 430.1,70.0 433.9,70.0 437.7,70.0 441.5,70.0 445.3,70.0 449.1,70.0 452.9,70.0 457.1,70.0 460.9,70.0 464.7,70.0 468.5,70.0 472.3,70.0 476.1,70.0 479.9,70.0 483.7,70.0 487.5,70.0 491.3,70.0 495.1,70.0 498.9,70.0 502.7,70.0 506.5,70.0 510.3,70.0 514.1,70.0 517.9,70.0 521.7,70.0 525.5,70.0 529.3,70.0 533.1,70.0 537.3,70.0 541.1,70.0 544.9,70.0 548.7,70.0 552.5,70.0 556.3,70.0 560.1,70.0 563.9,70.0 567.7,70.0 571.5,70.0 575.7,70.0 579.5,70.0 583.6,70.0 587.8,70.0 591.6,70.0 595.4,70.0 599.2,70.0 603.7,70.0 607.5,70.0 611.3,70.0 615.1,70.0 618.9,70.0 622.7,70.0 626.5,70.0 630.3,70.0 634.1,70.0 637.9,70.0 641.7,70.0 645.5,70.0 649.3,70.0 653.1,70.0 656.9,70.0 660.0,70.0"/>
<circle cx="660.0" cy="70.0" r="3.5" fill="#2ca02c"/>
<line x1="680" y1="135" x2="708" y2="135" stroke="#2ca02c" stroke-width="3"/>
<text x="716" y="140" font-family="Arial, Helvetica, sans-serif" font-size="12">BN Chow-Liu (AUC=0.9985)</text>
<polyline fill="none" stroke="#9467bd" stroke-width="2.8" stroke-linejoin="round" stroke-linecap="round" points="90.0,600.0 90.0,591.3 90.0,548.3 90.0,511.3 90.0,472.1 90.0,444.4 90.0,424.8 90.0,404.9 90.0,385.6 90.0,376.0 90.0,359.9 90.0,346.1 90.0,329.7 90.0,321.7 90.0,312.0 90.0,304.3 90.0,296.9 90.0,290.5 90.0,278.9 90.0,269.9 90.0,265.1 90.0,256.7 90.0,245.2 90.0,237.1 90.0,229.7 90.0,220.7 90.0,213.7 90.0,205.0 90.3,195.0 90.3,187.6 90.3,181.5 90.3,175.7 90.3,168.7 90.3,160.0 90.3,154.5 90.3,149.1 90.7,143.9 91.0,139.7 91.0,134.6 91.0,130.4 91.0,125.6 91.0,121.7 91.4,117.9 91.4,114.4 91.7,110.8 91.7,107.0 91.7,102.5 91.7,98.9 93.1,95.4 93.5,91.2 94.1,86.7 96.9,85.4 99.0,83.5 100.4,81.2 102.4,79.6 104.5,78.0 107.3,77.1 110.4,76.4 113.9,76.1 117.7,76.1 120.8,75.5 124.6,75.5 127.7,74.8 131.5,74.8 134.2,72.2 137.4,71.6 141.2,71.6 144.6,71.3 148.1,71.0 151.9,71.0 155.7,71.0 159.5,71.0 163.3,71.0 167.1,71.0 170.2,70.3 174.0,70.3 177.8,70.3 181.6,70.3 185.4,70.3 188.9,70.0 192.7,70.0 196.5,70.0 200.6,70.0 204.8,70.0 208.6,70.0 212.4,70.0 216.5,70.0 220.3,70.0 224.1,70.0 227.9,70.0 231.7,70.0 235.5,70.0 239.3,70.0 243.1,70.0 246.9,70.0 250.7,70.0 254.5,70.0 258.3,70.0 262.1,70.0 265.9,70.0 269.7,70.0 273.5,70.0 277.3,70.0 281.2,70.0 285.3,70.0 289.1,70.0 292.9,70.0 296.7,70.0 300.5,70.0 304.3,70.0 308.1,70.0 311.9,70.0 315.7,70.0 319.5,70.0 323.3,70.0 327.1,70.0 330.9,70.0 334.7,70.0 338.5,70.0 342.3,70.0 346.5,70.0 350.3,70.0 354.4,70.0 358.2,70.0 362.0,70.0 365.8,70.0 369.6,70.0 373.4,70.0 377.2,70.0 381.0,70.0 385.2,70.0 389.0,70.0 392.8,70.0 396.6,70.0 400.4,70.0 404.2,70.0 408.0,70.0 411.8,70.0 416.0,70.0 419.8,70.0 423.6,70.0 427.4,70.0 431.2,70.0 435.0,70.0 438.8,70.0 442.6,70.0 446.4,70.0 450.2,70.0 454.0,70.0 457.8,70.0 461.6,70.0 465.4,70.0 469.2,70.0 473.0,70.0 476.8,70.0 480.6,70.0 484.7,70.0 488.6,70.0 492.4,70.0 496.2,70.0 500.0,70.0 503.8,70.0 507.6,70.0 511.4,70.0 515.2,70.0 519.0,70.0 522.8,70.0 526.6,70.0 530.4,70.0 534.2,70.0 538.3,70.0 542.1,70.0 545.9,70.0 549.7,70.0 553.5,70.0 557.7,70.0 561.5,70.0 565.3,70.0 569.1,70.0 572.9,70.0 576.7,70.0 580.5,70.0 584.3,70.0 588.1,70.0 591.9,70.0 595.7,70.0 599.5,70.0 603.3,70.0 607.1,70.0 610.9,70.0 614.7,70.0 618.5,70.0 623.0,70.0 626.8,70.0 630.6,70.0 634.4,70.0 638.2,70.0 642.4,70.0 646.2,70.0 650.0,70.0 653.8,70.0 657.6,70.0 660.0,70.0"/>
<circle cx="660.0" cy="70.0" r="3.5" fill="#9467bd"/>
<line x1="680" y1="157" x2="708" y2="157" stroke="#9467bd" stroke-width="3"/>
<text x="716" y="162" font-family="Arial, Helvetica, sans-serif" font-size="12">BN EBN(p=2) (AUC=0.9982)</text>
<text x="460.0" y="656" text-anchor="middle" font-family="Arial, Helvetica, sans-serif" font-size="13">False Positive Rate</text>
<text x="22" y="340.0" transform="rotate(-90 22 340.0)" text-anchor="middle" font-family="Arial, Helvetica, sans-serif" font-size="13">True Positive Rate</text>
</svg>
