<?xml version="1.0" encoding="UTF-8"?>
<svg xmlns="http://www.w3.org/2000/svg" width="920" height="680" viewBox="0 0 920 680">
<rect x="0" y="0" width="920" height="680" fill="#ffffff"/>
<text x="460.0" y="34" text-anchor="middle" font-family="Arial, Helvetica, sans-serif" font-size="22" font-weight="700">ROC Curves for Splice Site Prediction</text>
<line x1="90" y1="600" x2="660" y2="600" stroke="#222" stroke-width="1.5"/>
<line x1="90" y1="70" x2="90" y2="600" stroke="#222" stroke-width="1.5"/>
<line x1="90.0" y1="70" x2="90.0" y2="600" stroke="#e6e6e6" stroke-width="1"/>
<line x1="90" y1="600.0" x2="660" y2="600.0" stroke="#e6e6e6" stroke-width="1"/>
<text x="90.0" y="624" text-anchor="middle" font-family="Arial, Helvetica, sans-serif" font-size="12">0.0</text>
<text x="78" y="604.0" text-anchor="end" font-family="Arial, Helvetica, sans-serif" font-size="12">0.0</text>
<line x1="204.0" y1="70" x2="204.0" y2="600" stroke="#e6e6e6" stroke-width="1"/>
<line x1="90" y1="494.0" x2="660" y2="494.0" stroke="#e6e6e6" stroke-width="1"/>
<text x="204.0" y="624" text-anchor="middle" font-family="Arial, Helvetica, sans-serif" font-size="12">0.2</text>
<text x="78" y="498.0" text-anchor="end" font-family="Arial, Helvetica, sans-serif" font-size="12">0.2</text>
<line x1="318.0" y1="70" x2="318.0" y2="600" stroke="#e6e6e6" stroke-width="1"/>
<line x1="90" y1="388.0" x2="660" y2="388.0" stroke="#e6e6e6" stroke-width="1"/>
<text x="318.0" y="624" text-anchor="middle" font-family="Arial, Helvetica, sans-serif" font-size="12">0.4</text>
<text x="78" y="392.0" text-anchor="end" font-family="Arial, Helvetica, sans-serif" font-size="12">0.4</text>
<line x1="432.0" y1="70" x2="432.0" y2="600" stroke="#e6e6e6" stroke-width="1"/>
<line x1="90" y1="282.0" x2="660" y2="282.0" stroke="#e6e6e6" stroke-width="1"/>
<text x="432.0" y="624" text-anchor="middle" font-family="Arial, Helvetica, sans-serif" font-size="12">0.6</text>
<text x="78" y="286.0" text-anchor="end" font-family="Arial, Helvetica, sans-serif" font-size="12">0.6</text>
<line x1="546.0" y1="70" x2="546.0" y2="600" stroke="#e6e6e6" stroke-width="1"/>
<line x1="90" y1="176.0" x2="660" y2="176.0" stroke="#e6e6e6" stroke-width="1"/>
<text x="546.0" y="624" text-anchor="middle" font-family="Arial, Helvetica, sans-serif" font-size="12">0.8</text>
<text x="78" y="180.0" text-anchor="end" font-family="Arial, Helvetica, sans-serif" font-size="12">0.8</text>
<line x1="660.0" y1="70" x2="660.0" y2="600" stroke="#e6e6e6" stroke-width="1"/>
<line x1="90" y1="70.0" x2="660" y2="70.0" stroke="#e6e6e6" stroke-width="1"/>
<text x="660.0" y="624" text-anchor="middle" font-family="Arial, Helvetica, sans-serif" font-size="12">1.0</text>
<text x="78" y="74.0" text-anchor="end" font-family="Arial, Helvetica, sans-serif" font-size="12">1.0</text>
<line x1="90.0" y1="600.0" x2="660.0" y2="70.0" stroke="#777" stroke-width="1.5" stroke-dasharray="6,5"/>
<text x="680" y="80" font-family="Arial, Helvetica, sans-serif" font-size="14" font-weight="700">Legend</text>
<path d="M 90.0,600.0 Q 90.0,596.4 90.0,594.7 Q 90.0,592.9 90.0,591.1 Q 90.0,589.3 90.0,587.6 Q 90.0,585.8 90.0,584.0 Q 90.0,582.2 90.0,580.4 Q 90.0,578.7 90.0,576.9 Q 90.0,575.1 90.0,573.3 Q 90.0,571.5 90.0,569.8 Q 90.0,568.0 90.0,566.2 Q 90.0,564.4 90.0,562.7 Q 90.0,560.9 90.0,559.1 Q 90.0,557.3 90.0,555.5 Q 90.0,553.8 90.0,552.0 Q 90.0,550.2 90.0,548.4 Q 90.0,546.6 90.0,544.9 Q 90.0,543.1 90.0,541.3 Q 90.0,539.5 90.0,537.8 Q 90.0,536.0 90.0,534.2 Q 90.0,532.4 90.0,530.6 Q 90.0,528.9 90.0,527.1 Q 90.0,525.3 90.0,523.5 Q 90.0,521.7 90.0,520.0 Q 90.0,518.2 90.0,516.4 Q 90.0,514.6 90.0,512.9 Q 90.0,511.1 90.0,509.3 Q 90.0,507.5 90.0,505.7 Q 90.0,504.0 90.0,502.2 Q 90.0,500.4 90.0,498.6 Q 90.0,496.8 90.0,495.1 Q 90.0,493.3 90.0,491.5 Q 90.0,489.7 90.0,488.0 Q 90.0,486.2 90.0,484.4 Q 90.0,482.6 91.9,482.6 Q 93.8,482.6 93.8,480.8 Q 93.8,479.1 93.8,477.3 Q 93.8,475.5 93.8,473.7 Q 93.8,471.9 93.8,470.2 Q 93.8,468.4 93.8,466.6 Q 93.8,464.8 93.8,463.1 Q 93.8,461.3 93.8,459.5 Q 93.8,457.7 93.8,455.9 Q 93.8,454.2 93.8,452.4 Q 93.8,450.6 93.8,448.8 Q 93.8,447.0 93.8,445.3 Q 93.8,443.5 93.8,441.7 Q 93.8,439.9 93.8,438.2 Q 93.8,436.4 93.8,434.6 Q 93.8,432.8 93.8,431.0 Q 93.8,429.3 93.8,427.5 Q 93.8,425.7 93.8,423.9 Q 93.8,422.1 93.8,420.4 Q 93.8,418.6 93.8,416.8 Q 93.8,415.0 93.8,413.3 Q 93.8,411.5 93.8,409.7 Q 93.8,407.9 93.8,406.1 Q 93.8,404.4 93.8,402.6 Q 93.8,400.8 93.8,399.0 Q 93.8,397.2 93.8,395.5 Q 93.8,393.7 93.8,391.9 Q 93.8,390.1 93.8,388.4 Q 93.8,386.6 93.8,384.8 Q 93.8,383.0 93.8,381.2 Q 93.8,379.5 93.8,377.7 Q 93.8,375.9 93.8,374.1 Q 93.8,372.3 93.8,370.6 Q 93.8,368.8 93.8,367.0 Q 93.8,365.2 95.7,365.2 Q 97.7,365.2 97.7,363.5 Q 97.7,361.7 97.7,359.9 Q 97.7,358.1 99.6,358.1 Q 101.5,358.1 101.5,356.3 Q 101.5,354.6 101.5,352.8 Q 101.5,351.0 101.5,349.2 Q 101.5,347.4 101.5,345.7 Q 101.5,343.9 101.5,342.1 Q 101.5,340.3 103.4,340.3 Q 105.3,340.3 105.3,338.6 Q 105.3,336.8 105.3,335.0 Q 105.3,333.2 105.3,331.4 Q 105.3,329.7 105.3,327.9 Q 105.3,326.1 105.3,324.3 Q 105.3,322.6 105.3,320.8 Q 105.3,319.0 105.3,317.2 Q 105.3,315.4 105.3,313.7 Q 105.3,311.9 105.3,310.1 Q 105.3,308.3 105.3,306.5 Q 105.3,304.8 105.3,303.0 Q 105.3,301.2 105.3,299.4 Q 105.3,297.7 105.3,295.9 Q 105.3,294.1 105.3,292.3 Q 105.3,290.5 105.3,288.8 Q 105.3,287.0 105.3,285.2 Q 105.3,283.4 105.3,281.6 Q 105.3,279.9 105.3,278.1 Q 105.3,276.3 105.3,274.5 Q 105.3,272.8 107.2,272.8 Q 109.1,272.8 109.1,271.0 Q 109.1,269.2 109.1,267.4 Q 109.1,265.6 109.1,263.9 Q 109.1,262.1 109.1,260.3 Q 109.1,258.5 109.1,256.7 Q 109.1,255.0 109.1,253.2 Q 109.1,251.4 111.0,251.4 Q 113.0,251.4 113.0,249.6 Q 113.0,247.9 113.0,246.1 Q 113.0,244.3 113.0,242.5 Q 113.0,240.7 114.9,240.7 Q 116.8,240.7 116.8,239.0 Q 116.8,237.2 116.8,235.4 Q 116.8,233.6 116.8,231.8 Q 116.8,230.1 116.8,228.3 Q 116.8,226.5 116.8,224.7 Q 116.8,223.0 116.8,221.2 Q 116.8,219.4 118.7,219.4 Q 120.6,219.4 122.5,219.4 Q 124.4,219.4 126.3,219.4 Q 128.3,219.4 130.2,219.4 Q 132.1,219.4 132.1,217.6 Q 132.1,215.8 134.0,215.8 Q 135.9,215.8 135.9,214.1 Q 135.9,212.3 137.8,212.3 Q 139.7,212.3 141.6,212.3 Q 143.6,212.3 143.6,210.5 Q 143.6,208.7 143.6,206.9 Q 143.6,205.2 145.5,205.2 Q 147.4,205.2 149.3,205.2 Q 151.2,205.2 153.1,205.2 Q 155.0,205.2 156.9,205.2 Q 158.9,205.2 160.8,205.2 Q 162.7,205.2 164.6,205.2 Q 166.5,205.2 168.4,205.2 Q 170.3,205.2 170.3,203.4 Q 170.3,201.6 170.3,199.8 Q 170.3,198.1 170.3,196.3 Q 170.3,194.5 172.2,194.5 Q 174.2,194.5 174.2,192.7 Q 174.2,190.9 174.2,189.2 Q 174.2,187.4 176.1,187.4 Q 178.0,187.4 178.0,185.6 Q 178.0,183.8 179.9,183.8 Q 181.8,183.8 183.7,183.8 Q 185.6,183.8 187.6,183.8 Q 189.5,183.8 189.5,182.0 Q 189.5,180.3 191.4,180.3 Q 193.3,180.3 193.3,178.5 Q 193.3,176.7 193.3,174.9 Q 193.3,173.2 193.3,171.4 Q 193.3,169.6 195.2,169.6 Q 197.1,169.6 197.1,167.8 Q 197.1,166.0 197.1,164.3 Q 197.1,162.5 199.0,162.5 Q 200.9,162.5 200.9,160.7 Q 200.9,158.9 202.9,158.9 Q 204.8,158.9 206.7,158.9 Q 208.6,158.9 210.5,158.9 Q 212.4,158.9 214.3,158.9 Q 216.2,158.9 216.2,157.1 Q 216.2,155.4 216.2,153.6 Q 216.2,151.8 218.2,151.8 Q 220.1,151.8 220.1,150.0 Q 220.1,148.3 220.1,146.5 Q 220.1,144.7 222.0,144.7 Q 223.9,144.7 223.9,142.9 Q 223.9,141.1 225.8,141.1 Q 227.7,141.1 227.7,139.4 Q 227.7,137.6 229.6,137.6 Q 231.5,137.6 233.5,137.6 Q 235.4,137.6 237.3,137.6 Q 239.2,137.6 241.1,137.6 Q 243.0,137.6 244.9,137.6 Q 246.8,137.6 248.8,137.6 Q 250.7,137.6 250.7,135.8 Q 250.7,134.0 250.7,132.2 Q 250.7,130.5 252.6,130.5 Q 254.5,130.5 256.4,130.5 Q 258.3,130.5 260.2,130.5 Q 262.1,130.5 264.1,130.5 Q 266.0,130.5 266.0,128.7 Q 266.0,126.9 266.0,125.1 Q 266.0,123.4 267.9,123.4 Q 269.8,123.4 269.8,121.6 Q 269.8,119.8 269.8,118.0 Q 269.8,116.2 271.7,116.2 Q 273.6,116.2 275.5,116.2 Q 277.4,116.2 279.4,116.2 Q 281.3,116.2 283.2,116.2 Q 285.1,116.2 287.0,116.2 Q 288.9,116.2 290.8,116.2 Q 292.8,116.2 294.7,116.2 Q 296.6,116.2 298.5,116.2 Q 300.4,116.2 302.3,116.2 Q 304.2,116.2 304.2,114.5 Q 304.2,112.7 306.1,112.7 Q 308.1,112.7 310.0,112.7 Q 311.9,112.7 313.8,112.7 Q 315.7,112.7 315.7,110.9 Q 315.7,109.1 317.6,109.1 Q 319.5,109.1 321.4,109.1 Q 323.4,109.1 325.3,109.1 Q 327.2,109.1 329.1,109.1 Q 331.0,109.1 332.9,109.1 Q 334.8,109.1 336.7,109.1 Q 338.7,109.1 340.6,109.1 Q 342.5,109.1 344.4,109.1 Q 346.3,109.1 348.2,109.1 Q 350.1,109.1 352.0,109.1 Q 354.0,109.1 355.9,109.1 Q 357.8,109.1 359.7,109.1 Q 361.6,109.1 361.6,107.3 Q 361.6,105.6 363.5,105.6 Q 365.4,105.6 367.3,105.6 Q 369.3,105.6 371.2,105.6 Q 373.1,105.6 373.1,103.8 Q 373.1,102.0 375.0,102.0 Q 376.9,102.0 378.8,102.0 Q 380.7,102.0 382.7,102.0 Q 384.6,102.0 386.5,102.0 Q 388.4,102.0 390.3,102.0 Q 392.2,102.0 392.2,100.2 Q 392.2,98.5 394.1,98.5 Q 396.0,98.5 398.0,98.5 Q 399.9,98.5 401.8,98.5 Q 403.7,98.5 405.6,98.5 Q 407.5,98.5 409.4,98.5 Q 411.3,98.5 413.3,98.5 Q 415.2,98.5 415.2,96.7 Q 415.2,94.9 417.1,94.9 Q 419.0,94.9 420.9,94.9 Q 422.8,94.9 422.8,93.1 Q 422.8,91.3 424.7,91.3 Q 426.6,91.3 428.6,91.3 Q 430.5,91.3 430.5,89.6 Q 430.5,87.8 432.4,87.8 Q 434.3,87.8 436.2,87.8 Q 438.1,87.8 440.0,87.8 Q 441.9,87.8 443.9,87.8 Q 445.8,87.8 447.7,87.8 Q 449.6,87.8 451.5,87.8 Q 453.4,87.8 455.3,87.8 Q 457.2,87.8 459.2,87.8 Q 461.1,87.8 461.1,86.0 Q 461.1,84.2 463.0,84.2 Q 464.9,84.2 466.8,84.2 Q 468.7,84.2 470.6,84.2 Q 472.6,84.2 474.5,84.2 Q 476.4,84.2 478.3,84.2 Q 480.2,84.2 482.1,84.2 Q 484.0,84.2 485.9,84.2 Q 487.9,84.2 487.9,82.4 Q 487.9,80.7 489.8,80.7 Q 491.7,80.7 493.6,80.7 Q 495.5,80.7 497.4,80.7 Q 499.3,80.7 501.2,80.7 Q 503.2,80.7 505.1,80.7 Q 507.0,80.7 508.9,80.7 Q 510.8,80.7 512.7,80.7 Q 514.6,80.7 516.5,80.7 Q 518.5,80.7 518.5,78.9 Q 518.5,77.1 520.4,77.1 Q 522.3,77.1 524.2,77.1 Q 526.1,77.1 528.0,77.1 Q 529.9,77.1 531.8,77.1 Q 533.8,77.1 535.7,77.1 Q 537.6,77.1 539.5,77.1 Q 541.4,77.1 543.3,77.1 Q 545.2,77.1 547.1,77.1 Q 549.1,77.1 551.0,77.1 Q 552.9,77.1 554.8,77.1 Q 556.7,77.1 558.6,77.1 Q 560.5,77.1 562.4,77.1 Q 564.4,77.1 566.3,77.1 Q 568.2,77.1 568.2,75.3 Q 568.2,73.6 568.2,71.8 Q 568.2,70.0 570.1,70.0 Q 572.0,70.0 573.9,70.0 Q 575.8,70.0 577.8,70.0 Q 579.7,70.0 581.6,70.0 Q 583.5,70.0 585.4,70.0 Q 587.3,70.0 589.2,70.0 Q 591.1,70.0 593.1,70.0 Q 595.0,70.0 596.9,70.0 Q 598.8,70.0 600.7,70.0 Q 602.6,70.0 604.5,70.0 Q 606.4,70.0 608.4,70.0 Q 610.3,70.0 612.2,70.0 Q 614.1,70.0 616.0,70.0 Q 617.9,70.0 619.8,70.0 Q 621.7,70.0 623.7,70.0 Q 625.6,70.0 627.5,70.0 Q 629.4,70.0 631.3,70.0 Q 633.2,70.0 635.1,70.0 Q 637.0,70.0 639.0,70.0 Q 640.9,70.0 642.8,70.0 Q 644.7,70.0 646.6,70.0 Q 648.5,70.0 650.4,70.0 Q 652.3,70.0 654.3,70.0 Q 656.2,70.0 658.1,70.0 Q 660.0,70.0 660.0,70.0 Q 660.0,70.0 660.0,70.0" fill="none" stroke="#1f77b4" stroke-width="2.8" stroke-linejoin="round" stroke-linecap="round"/>
<circle cx="660.0" cy="70.0" r="3.5" fill="#1f77b4"/>
<line x1="680" y1="91" x2="708" y2="91" stroke="#1f77b4" stroke-width="3"/>
<text x="716" y="96" font-family="Arial, Helvetica, sans-serif" font-size="12">WMM (AUC=0.8996)</text>
<path d="M 90.0,600.0 Q 90.0,596.4 90.0,594.7 Q 90.0,592.9 90.0,591.1 Q 90.0,589.3 90.0,587.6 Q 90.0,585.8 90.0,584.0 Q 90.0,582.2 90.0,580.4 Q 90.0,578.7 90.0,576.9 Q 90.0,575.1 90.0,573.3 Q 90.0,571.5 90.0,569.8 Q 90.0,568.0 90.0,566.2 Q 90.0,564.4 90.0,562.7 Q 90.0,560.9 90.0,559.1 Q 90.0,557.3 90.0,555.5 Q 90.0,553.8 90.0,552.0 Q 90.0,550.2 90.0,548.4 Q 90.0,546.6 90.0,544.9 Q 90.0,543.1 90.0,541.3 Q 90.0,539.5 90.0,537.8 Q 90.0,536.0 90.0,534.2 Q 90.0,532.4 90.0,530.6 Q 90.0,528.9 90.0,527.1 Q 90.0,525.3 90.0,523.5 Q 90.0,521.7 90.0,520.0 Q 90.0,518.2 90.0,516.4 Q 90.0,514.6 90.0,512.9 Q 90.0,511.1 90.0,509.3 Q 90.0,507.5 90.0,505.7 Q 90.0,504.0 90.0,502.2 Q 90.0,500.4 90.0,498.6 Q 90.0,496.8 90.0,495.1 Q 90.0,493.3 90.0,491.5 Q 90.0,489.7 90.0,488.0 Q 90.0,486.2 90.0,484.4 Q 90.0,482.6 90.0,480.8 Q 90.0,479.1 90.0,477.3 Q 90.0,475.5 90.0,473.7 Q 90.0,471.9 91.9,471.9 Q 93.8,471.9 93.8,470.2 Q 93.8,468.4 93.8,466.6 Q 93.8,464.8 93.8,463.1 Q 93.8,461.3 93.8,459.5 Q 93.8,457.7 93.8,455.9 Q 93.8,454.2 93.8,452.4 Q 93.8,450.6 93.8,448.8 Q 93.8,447.0 93.8,445.3 Q 93.8,443.5 93.8,441.7 Q 93.8,439.9 93.8,438.2 Q 93.8,436.4 93.8,434.6 Q 93.8,432.8 93.8,431.0 Q 93.8,429.3 93.8,427.5 Q 93.8,425.7 93.8,423.9 Q 93.8,422.1 93.8,420.4 Q 93.8,418.6 93.8,416.8 Q 93.8,415.0 93.8,413.3 Q 93.8,411.5 93.8,409.7 Q 93.8,407.9 93.8,406.1 Q 93.8,404.4 93.8,402.6 Q 93.8,400.8 93.8,399.0 Q 93.8,397.2 93.8,395.5 Q 93.8,393.7 93.8,391.9 Q 93.8,390.1 93.8,388.4 Q 93.8,386.6 93.8,384.8 Q 93.8,383.0 93.8,381.2 Q 93.8,379.5 93.8,377.7 Q 93.8,375.9 93.8,374.1 Q 93.8,372.3 93.8,370.6 Q 93.8,368.8 93.8,367.0 Q 93.8,365.2 93.8,363.5 Q 93.8,361.7 93.8,359.9 Q 93.8,358.1 93.8,356.3 Q 93.8,354.6 93.8,352.8 Q 93.8,351.0 93.8,349.2 Q 93.8,347.4 93.8,345.7 Q 93.8,343.9 93.8,342.1 Q 93.8,340.3 93.8,338.6 Q 93.8,336.8 93.8,335.0 Q 93.8,333.2 93.8,331.4 Q 93.8,329.7 95.7,329.7 Q 97.7,329.7 97.7,327.9 Q 97.7,326.1 97.7,324.3 Q 97.7,322.6 97.7,320.8 Q 97.7,319.0 97.7,317.2 Q 97.7,315.4 97.7,313.7 Q 97.7,311.9 97.7,310.1 Q 97.7,308.3 97.7,306.5 Q 97.7,304.8 97.7,303.0 Q 97.7,301.2 97.7,299.4 Q 97.7,297.7 97.7,295.9 Q 97.7,294.1 99.6,294.1 Q 101.5,294.1 101.5,292.3 Q 101.5,290.5 101.5,288.8 Q 101.5,287.0 101.5,285.2 Q 101.5,283.4 101.5,281.6 Q 101.5,279.9 101.5,278.1 Q 101.5,276.3 101.5,274.5 Q 101.5,272.8 103.4,272.8 Q 105.3,272.8 105.3,271.0 Q 105.3,269.2 105.3,267.4 Q 105.3,265.6 105.3,263.9 Q 105.3,262.1 105.3,260.3 Q 105.3,258.5 105.3,256.7 Q 105.3,255.0 105.3,253.2 Q 105.3,251.4 107.2,251.4 Q 109.1,251.4 109.1,249.6 Q 109.1,247.9 109.1,246.1 Q 109.1,244.3 109.1,242.5 Q 109.1,240.7 109.1,239.0 Q 109.1,237.2 109.1,235.4 Q 109.1,233.6 109.1,231.8 Q 109.1,230.1 109.1,228.3 Q 109.1,226.5 109.1,224.7 Q 109.1,223.0 109.1,221.2 Q 109.1,219.4 109.1,217.6 Q 109.1,215.8 109.1,214.1 Q 109.1,212.3 111.0,212.3 Q 113.0,212.3 113.0,210.5 Q 113.0,208.7 114.9,208.7 Q 116.8,208.7 118.7,208.7 Q 120.6,208.7 120.6,206.9 Q 120.6,205.2 122.5,205.2 Q 124.4,205.2 124.4,203.4 Q 124.4,201.6 124.4,199.8 Q 124.4,198.1 124.4,196.3 Q 124.4,194.5 124.4,192.7 Q 124.4,190.9 126.3,190.9 Q 128.3,190.9 128.3,189.2 Q 128.3,187.4 128.3,185.6 Q 128.3,183.8 130.2,183.8 Q 132.1,183.8 132.1,182.0 Q 132.1,180.3 132.1,178.5 Q 132.1,176.7 132.1,174.9 Q 132.1,173.2 134.0,173.2 Q 135.9,173.2 137.8,173.2 Q 139.7,173.2 141.6,173.2 Q 143.6,173.2 143.6,171.4 Q 143.6,169.6 143.6,167.8 Q 143.6,166.0 145.5,166.0 Q 147.4,166.0 149.3,166.0 Q 151.2,166.0 153.1,166.0 Q 155.0,166.0 156.9,166.0 Q 158.9,166.0 158.9,164.3 Q 158.9,162.5 160.8,162.5 Q 162.7,162.5 164.6,162.5 Q 166.5,162.5 168.4,162.5 Q 170.3,162.5 172.2,162.5 Q 174.2,162.5 176.1,162.5 Q 178.0,162.5 179.9,162.5 Q 181.8,162.5 183.7,162.5 Q 185.6,162.5 185.6,160.7 Q 185.6,158.9 185.6,157.1 Q 185.6,155.4 187.6,155.4 Q 189.5,155.4 189.5,153.6 Q 189.5,151.8 191.4,151.8 Q 193.3,151.8 195.2,151.8 Q 197.1,151.8 199.0,151.8 Q 200.9,151.8 200.9,150.0 Q 200.9,148.3 202.9,148.3 Q 204.8,148.3 206.7,148.3 Q 208.6,148.3 210.5,148.3 Q 212.4,148.3 214.3,148.3 Q 216.2,148.3 216.2,146.5 Q 216.2,144.7 218.2,144.7 Q 220.1,144.7 220.1,142.9 Q 220.1,141.1 220.1,139.4 Q 220.1,137.6 220.1,135.8 Q 220.1,134.0 220.1,132.2 Q 220.1,130.5 222.0,130.5 Q 223.9,130.5 223.9,128.7 Q 223.9,126.9 223.9,125.1 Q 223.9,123.4 225.8,123.4 Q 227.7,123.4 229.6,123.4 Q 231.5,123.4 231.5,121.6 Q 231.5,119.8 233.5,119.8 Q 235.4,119.8 235.4,118.0 Q 235.4,116.2 237.3,116.2 Q 239.2,116.2 239.2,114.5 Q 239.2,112.7 239.2,110.9 Q 239.2,109.1 241.1,109.1 Q 243.0,109.1 244.9,109.1 Q 246.8,109.1 248.8,109.1 Q 250.7,109.1 252.6,109.1 Q 254.5,109.1 256.4,109.1 Q 258.3,109.1 260.2,109.1 Q 262.1,109.1 264.1,109.1 Q 266.0,109.1 267.9,109.1 Q 269.8,109.1 271.7,109.1 Q 273.6,109.1 275.5,109.1 Q 277.4,109.1 279.4,109.1 Q 281.3,109.1 281.3,107.3 Q 281.3,105.6 283.2,105.6 Q 285.1,105.6 287.0,105.6 Q 288.9,105.6 288.9,103.8 Q 288.9,102.0 290.8,102.0 Q 292.8,102.0 294.7,102.0 Q 296.6,102.0 298.5,102.0 Q 300.4,102.0 302.3,102.0 Q 304.2,102.0 306.1,102.0 Q 308.1,102.0 310.0,102.0 Q 311.9,102.0 313.8,102.0 Q 315.7,102.0 317.6,102.0 Q 319.5,102.0 321.4,102.0 Q 323.4,102.0 325.3,102.0 Q 327.2,102.0 329.1,102.0 Q 331.0,102.0 332.9,102.0 Q 334.8,102.0 336.7,102.0 Q 338.7,102.0 340.6,102.0 Q 342.5,102.0 344.4,102.0 Q 346.3,102.0 346.3,100.2 Q 346.3,98.5 346.3,96.7 Q 346.3,94.9 348.2,94.9 Q 350.1,94.9 352.0,94.9 Q 354.0,94.9 355.9,94.9 Q 357.8,94.9 357.8,93.1 Q 357.8,91.3 359.7,91.3 Q 361.6,91.3 363.5,91.3 Q 365.4,91.3 365.4,89.6 Q 365.4,87.8 367.3,87.8 Q 369.3,87.8 371.2,87.8 Q 373.1,87.8 375.0,87.8 Q 376.9,87.8 378.8,87.8 Q 380.7,87.8 380.7,86.0 Q 380.7,84.2 382.7,84.2 Q 384.6,84.2 386.5,84.2 Q 388.4,84.2 390.3,84.2 Q 392.2,84.2 394.1,84.2 Q 396.0,84.2 398.0,84.2 Q 399.9,84.2 399.9,82.4 Q 399.9,80.7 401.8,80.7 Q 403.7,80.7 405.6,80.7 Q 407.5,80.7 409.4,80.7 Q 411.3,80.7 413.3,80.7 Q 415.2,80.7 417.1,80.7 Q 419.0,80.7 420.9,80.7 Q 422.8,80.7 424.7,80.7 Q 426.6,80.7 428.6,80.7 Q 430.5,80.7 430.5,78.9 Q 430.5,77.1 430.5,75.3 Q 430.5,73.6 432.4,73.6 Q 434.3,73.6 436.2,73.6 Q 438.1,73.6 440.0,73.6 Q 441.9,73.6 443.9,73.6 Q 445.8,73.6 447.7,73.6 Q 449.6,73.6 451.5,73.6 Q 453.4,73.6 455.3,73.6 Q 457.2,73.6 459.2,73.6 Q 461.1,73.6 463.0,73.6 Q 464.9,73.6 466.8,73.6 Q 468.7,73.6 470.6,73.6 Q 472.6,73.6 474.5,73.6 Q 476.4,73.6 478.3,73.6 Q 480.2,73.6 482.1,73.6 Q 484.0,73.6 485.9,73.6 Q 487.9,73.6 489.8,73.6 Q 491.7,73.6 493.6,73.6 Q 495.5,73.6 497.4,73.6 Q 499.3,73.6 501.2,73.6 Q 503.2,73.6 505.1,73.6 Q 507.0,73.6 508.9,73.6 Q 510.8,73.6 512.7,73.6 Q 514.6,73.6 516.5,73.6 Q 518.5,73.6 520.4,73.6 Q 522.3,73.6 522.3,71.8 Q 522.3,70.0 524.2,70.0 Q 526.1,70.0 528.0,70.0 Q 529.9,70.0 531.8,70.0 Q 533.8,70.0 535.7,70.0 Q 537.6,70.0 539.5,70.0 Q 541.4,70.0 543.3,70.0 Q 545.2,70.0 547.1,70.0 Q 549.1,70.0 551.0,70.0 Q 552.9,70.0 554.8,70.0 Q 556.7,70.0 558.6,70.0 Q 560.5,70.0 562.4,70.0 Q 564.4,70.0 566.3,70.0 Q 568.2,70.0 570.1,70.0 Q 572.0,70.0 573.9,70.0 Q 575.8,70.0 577.8,70.0 Q 579.7,70.0 581.6,70.0 Q 583.5,70.0 585.4,70.0 Q 587.3,70.0 589.2,70.0 Q 591.1,70.0 593.1,70.0 Q 595.0,70.0 596.9,70.0 Q 598.8,70.0 600.7,70.0 Q 602.6,70.0 604.5,70.0 Q 606.4,70.0 608.4,70.0 Q 610.3,70.0 612.2,70.0 Q 614.1,70.0 616.0,70.0 Q 617.9,70.0 619.8,70.0 Q 621.7,70.0 623.7,70.0 Q 625.6,70.0 627.5,70.0 Q 629.4,70.0 631.3,70.0 Q 633.2,70.0 635.1,70.0 Q 637.0,70.0 639.0,70.0 Q 640.9,70.0 642.8,70.0 Q 644.7,70.0 646.6,70.0 Q 648.5,70.0 650.4,70.0 Q 652.3,70.0 654.3,70.0 Q 656.2,70.0 658.1,70.0 Q 660.0,70.0 660.0,70.0 Q 660.0,70.0 660.0,70.0" fill="none" stroke="#d62728" stroke-width="2.8" stroke-linejoin="round" stroke-linecap="round"/>
<circle cx="660.0" cy="70.0" r="3.5" fill="#d62728"/>
<line x1="680" y1="113" x2="708" y2="113" stroke="#d62728" stroke-width="3"/>
<text x="716" y="118" font-family="Arial, Helvetica, sans-serif" font-size="12">WAM (AUC=0.9266)</text>
<path d="M 90.0,600.0 Q 90.0,596.4 90.0,594.7 Q 90.0,592.9 90.0,591.1 Q 90.0,589.3 90.0,587.6 Q 90.0,585.8 90.0,584.0 Q 90.0,582.2 90.0,580.4 Q 90.0,578.7 90.0,576.9 Q 90.0,575.1 90.0,573.3 Q 90.0,571.5 90.0,569.8 Q 90.0,568.0 90.0,566.2 Q 90.0,564.4 90.0,562.7 Q 90.0,560.9 90.0,559.1 Q 90.0,557.3 90.0,555.5 Q 90.0,553.8 90.0,552.0 Q 90.0,550.2 90.0,548.4 Q 90.0,546.6 90.0,544.9 Q 90.0,543.1 90.0,541.3 Q 90.0,539.5 90.0,537.8 Q 90.0,536.0 90.0,534.2 Q 90.0,532.4 90.0,530.6 Q 90.0,528.9 90.0,527.1 Q 90.0,525.3 90.0,523.5 Q 90.0,521.7 90.0,520.0 Q 90.0,518.2 90.0,516.4 Q 90.0,514.6 90.0,512.9 Q 90.0,511.1 90.0,509.3 Q 90.0,507.5 90.0,505.7 Q 90.0,504.0 91.9,504.0 Q 93.8,504.0 93.8,502.2 Q 93.8,500.4 93.8,498.6 Q 93.8,496.8 93.8,495.1 Q 93.8,493.3 93.8,491.5 Q 93.8,489.7 93.8,488.0 Q 93.8,486.2 93.8,484.4 Q 93.8,482.6 93.8,480.8 Q 93.8,479.1 93.8,477.3 Q 93.8,475.5 93.8,473.7 Q 93.8,471.9 93.8,470.2 Q 93.8,468.4 93.8,466.6 Q 93.8,464.8 93.8,463.1 Q 93.8,461.3 93.8,459.5 Q 93.8,457.7 93.8,455.9 Q 93.8,454.2 93.8,452.4 Q 93.8,450.6 93.8,448.8 Q 93.8,447.0 93.8,445.3 Q 93.8,443.5 93.8,441.7 Q 93.8,439.9 93.8,438.2 Q 93.8,436.4 93.8,434.6 Q 93.8,432.8 93.8,431.0 Q 93.8,429.3 93.8,427.5 Q 93.8,425.7 93.8,423.9 Q 93.8,422.1 93.8,420.4 Q 93.8,418.6 93.8,416.8 Q 93.8,415.0 93.8,413.3 Q 93.8,411.5 93.8,409.7 Q 93.8,407.9 93.8,406.1 Q 93.8,404.4 93.8,402.6 Q 93.8,400.8 95.7,400.8 Q 97.7,400.8 97.7,399.0 Q 97.7,397.2 97.7,395.5 Q 97.7,393.7 97.7,391.9 Q 97.7,390.1 97.7,388.4 Q 97.7,386.6 97.7,384.8 Q 97.7,383.0 97.7,381.2 Q 97.7,379.5 97.7,377.7 Q 97.7,375.9 97.7,374.1 Q 97.7,372.3 97.7,370.6 Q 97.7,368.8 97.7,367.0 Q 97.7,365.2 97.7,363.5 Q 97.7,361.7 97.7,359.9 Q 97.7,358.1 97.7,356.3 Q 97.7,354.6 97.7,352.8 Q 97.7,351.0 97.7,349.2 Q 97.7,347.4 97.7,345.7 Q 97.7,343.9 97.7,342.1 Q 97.7,340.3 97.7,338.6 Q 97.7,336.8 97.7,335.0 Q 97.7,333.2 97.7,331.4 Q 97.7,329.7 97.7,327.9 Q 97.7,326.1 97.7,324.3 Q 97.7,322.6 97.7,320.8 Q 97.7,319.0 97.7,317.2 Q 97.7,315.4 97.7,313.7 Q 97.7,311.9 97.7,310.1 Q 97.7,308.3 97.7,306.5 Q 97.7,304.8 97.7,303.0 Q 97.7,301.2 97.7,299.4 Q 97.7,297.7 97.7,295.9 Q 97.7,294.1 97.7,292.3 Q 97.7,290.5 97.7,288.8 Q 97.7,287.0 97.7,285.2 Q 97.7,283.4 97.7,281.6 Q 97.7,279.9 99.6,279.9 Q 101.5,279.9 101.5,278.1 Q 101.5,276.3 103.4,276.3 Q 105.3,276.3 105.3,274.5 Q 105.3,272.8 105.3,271.0 Q 105.3,269.2 105.3,267.4 Q 105.3,265.6 105.3,263.9 Q 105.3,262.1 105.3,260.3 Q 105.3,258.5 105.3,256.7 Q 105.3,255.0 105.3,253.2 Q 105.3,251.4 105.3,249.6 Q 105.3,247.9 105.3,246.1 Q 105.3,244.3 105.3,242.5 Q 105.3,240.7 105.3,239.0 Q 105.3,237.2 105.3,235.4 Q 105.3,233.6 105.3,231.8 Q 105.3,230.1 107.2,230.1 Q 109.1,230.1 111.0,230.1 Q 113.0,230.1 113.0,228.3 Q 113.0,226.5 113.0,224.7 Q 113.0,223.0 113.0,221.2 Q 113.0,219.4 113.0,217.6 Q 113.0,215.8 113.0,214.1 Q 113.0,212.3 113.0,210.5 Q 113.0,208.7 114.9,208.7 Q 116.8,208.7 116.8,206.9 Q 116.8,205.2 116.8,203.4 Q 116.8,201.6 118.7,201.6 Q 120.6,201.6 120.6,199.8 Q 120.6,198.1 120.6,196.3 Q 120.6,194.5 120.6,192.7 Q 120.6,190.9 122.5,190.9 Q 124.4,190.9 124.4,189.2 Q 124.4,187.4 126.3,187.4 Q 128.3,187.4 130.2,187.4 Q 132.1,187.4 132.1,185.6 Q 132.1,183.8 134.0,183.8 Q 135.9,183.8 137.8,183.8 Q 139.7,183.8 139.7,182.0 Q 139.7,180.3 139.7,178.5 Q 139.7,176.7 141.6,176.7 Q 143.6,176.7 145.5,176.7 Q 147.4,176.7 147.4,174.9 Q 147.4,173.2 149.3,173.2 Q 151.2,173.2 151.2,171.4 Q 151.2,169.6 153.1,169.6 Q 155.0,169.6 156.9,169.6 Q 158.9,169.6 158.9,167.8 Q 158.9,166.0 158.9,164.3 Q 158.9,162.5 160.8,162.5 Q 162.7,162.5 164.6,162.5 Q 166.5,162.5 168.4,162.5 Q 170.3,162.5 170.3,160.7 Q 170.3,158.9 172.2,158.9 Q 174.2,158.9 176.1,158.9 Q 178.0,158.9 178.0,157.1 Q 178.0,155.4 179.9,155.4 Q 181.8,155.4 181.8,153.6 Q 181.8,151.8 181.8,150.0 Q 181.8,148.3 181.8,146.5 Q 181.8,144.7 183.7,144.7 Q 185.6,144.7 187.6,144.7 Q 189.5,144.7 191.4,144.7 Q 193.3,144.7 195.2,144.7 Q 197.1,144.7 199.0,144.7 Q 200.9,144.7 202.9,144.7 Q 204.8,144.7 204.8,142.9 Q 204.8,141.1 206.7,141.1 Q 208.6,141.1 210.5,141.1 Q 212.4,141.1 214.3,141.1 Q 216.2,141.1 216.2,139.4 Q 216.2,137.6 216.2,135.8 Q 216.2,134.0 218.2,134.0 Q 220.1,134.0 220.1,132.2 Q 220.1,130.5 222.0,130.5 Q 223.9,130.5 223.9,128.7 Q 223.9,126.9 223.9,125.1 Q 223.9,123.4 225.8,123.4 Q 227.7,123.4 229.6,123.4 Q 231.5,123.4 233.5,123.4 Q 235.4,123.4 237.3,123.4 Q 239.2,123.4 239.2,121.6 Q 239.2,119.8 241.1,119.8 Q 243.0,119.8 244.9,119.8 Q 246.8,119.8 248.8,119.8 Q 250.7,119.8 252.6,119.8 Q 254.5,119.8 256.4,119.8 Q 258.3,119.8 260.2,119.8 Q 262.1,119.8 262.1,118.0 Q 262.1,116.2 264.1,116.2 Q 266.0,116.2 267.9,116.2 Q 269.8,116.2 271.7,116.2 Q 273.6,116.2 275.5,116.2 Q 277.4,116.2 277.4,114.5 Q 277.4,112.7 279.4,112.7 Q 281.3,112.7 283.2,112.7 Q 285.1,112.7 287.0,112.7 Q 288.9,112.7 290.8,112.7 Q 292.8,112.7 294.7,112.7 Q 296.6,112.7 298.5,112.7 Q 300.4,112.7 300.4,110.9 Q 300.4,109.1 300.4,107.3 Q 300.4,105.6 300.4,103.8 Q 300.4,102.0 300.4,100.2 Q 300.4,98.5 302.3,98.5 Q 304.2,98.5 306.1,98.5 Q 308.1,98.5 310.0,98.5 Q 311.9,98.5 313.8,98.5 Q 315.7,98.5 317.6,98.5 Q 319.5,98.5 321.4,98.5 Q 323.4,98.5 323.4,96.7 Q 323.4,94.9 325.3,94.9 Q 327.2,94.9 329.1,94.9 Q 331.0,94.9 331.0,93.1 Q 331.0,91.3 331.0,89.6 Q 331.0,87.8 331.0,86.0 Q 331.0,84.2 332.9,84.2 Q 334.8,84.2 336.7,84.2 Q 338.7,84.2 340.6,84.2 Q 342.5,84.2 344.4,84.2 Q 346.3,84.2 346.3,82.4 Q 346.3,80.7 348.2,80.7 Q 350.1,80.7 352.0,80.7 Q 354.0,80.7 355.9,80.7 Q 357.8,80.7 359.7,80.7 Q 361.6,80.7 363.5,80.7 Q 365.4,80.7 367.3,80.7 Q 369.3,80.7 371.2,80.7 Q 373.1,80.7 375.0,80.7 Q 376.9,80.7 376.9,78.9 Q 376.9,77.1 378.8,77.1 Q 380.7,77.1 382.7,77.1 Q 384.6,77.1 384.6,75.3 Q 384.6,73.6 386.5,73.6 Q 388.4,73.6 390.3,73.6 Q 392.2,73.6 394.1,73.6 Q 396.0,73.6 398.0,73.6 Q 399.9,73.6 401.8,73.6 Q 403.7,73.6 405.6,73.6 Q 407.5,73.6 409.4,73.6 Q 411.3,73.6 413.3,73.6 Q 415.2,73.6 415.2,71.8 Q 415.2,70.0 417.1,70.0 Q 419.0,70.0 420.9,70.0 Q 422.8,70.0 424.7,70.0 Q 426.6,70.0 428.6,70.0 Q 430.5,70.0 432.4,70.0 Q 434.3,70.0 436.2,70.0 Q 438.1,70.0 440.0,70.0 Q 441.9,70.0 443.9,70.0 Q 445.8,70.0 447.7,70.0 Q 449.6,70.0 451.5,70.0 Q 453.4,70.0 455.3,70.0 Q 457.2,70.0 459.2,70.0 Q 461.1,70.0 463.0,70.0 Q 464.9,70.0 466.8,70.0 Q 468.7,70.0 470.6,70.0 Q 472.6,70.0 474.5,70.0 Q 476.4,70.0 478.3,70.0 Q 480.2,70.0 482.1,70.0 Q 484.0,70.0 485.9,70.0 Q 487.9,70.0 489.8,70.0 Q 491.7,70.0 493.6,70.0 Q 495.5,70.0 497.4,70.0 Q 499.3,70.0 501.2,70.0 Q 503.2,70.0 505.1,70.0 Q 507.0,70.0 508.9,70.0 Q 510.8,70.0 512.7,70.0 Q 514.6,70.0 516.5,70.0 Q 518.5,70.0 520.4,70.0 Q 522.3,70.0 524.2,70.0 Q 526.1,70.0 528.0,70.0 Q 529.9,70.0 531.8,70.0 Q 533.8,70.0 535.7,70.0 Q 537.6,70.0 539.5,70.0 Q 541.4,70.0 543.3,70.0 Q 545.2,70.0 547.1,70.0 Q 549.1,70.0 551.0,70.0 Q 552.9,70.0 554.8,70.0 Q 556.7,70.0 558.6,70.0 Q 560.5,70.0 562.4,70.0 Q 564.4,70.0 566.3,70.0 Q 568.2,70.0 570.1,70.0 Q 572.0,70.0 573.9,70.0 Q 575.8,70.0 577.8,70.0 Q 579.7,70.0 581.6,70.0 Q 583.5,70.0 585.4,70.0 Q 587.3,70.0 589.2,70.0 Q 591.1,70.0 593.1,70.0 Q 595.0,70.0 596.9,70.0 Q 598.8,70.0 600.7,70.0 Q 602.6,70.0 604.5,70.0 Q 606.4,70.0 608.4,70.0 Q 610.3,70.0 612.2,70.0 Q 614.1,70.0 616.0,70.0 Q 617.9,70.0 619.8,70.0 Q 621.7,70.0 623.7,70.0 Q 625.6,70.0 627.5,70.0 Q 629.4,70.0 631.3,70.0 Q 633.2,70.0 635.1,70.0 Q 637.0,70.0 639.0,70.0 Q 640.9,70.0 642.8,70.0 Q 644.7,70.0 646.6,70.0 Q 648.5,70.0 650.4,70.0 Q 652.3,70.0 654.3,70.0 Q 656.2,70.0 658.1,70.0 Q 660.0,70.0 660.0,70.0 Q 660.0,70.0 660.0,70.0" fill="none" stroke="#2ca02c" stroke-width="2.8" stroke-linejoin="round" stroke-linecap="round"/>
<circle cx="660.0" cy="70.0" r="3.5" fill="#2ca02c"/>
<line x1="680" y1="135" x2="708" y2="135" stroke="#2ca02c" stroke-width="3"/>
<text x="716" y="140" font-family="Arial, Helvetica, sans-serif" font-size="12">Dependency-WAM (AUC=0.9296)</text>
<text x="460.0" y="656" text-anchor="middle" font-family="Arial, Helvetica, sans-serif" font-size="13">False Positive Rate</text>
<text x="22" y="340.0" transform="rotate(-90 22 340.0)" text-anchor="middle" font-family="Arial, Helvetica, sans-serif" font-size="13">True Positive Rate</text>
</svg>
